<?xml version="1.0" encoding="UTF-8" standalone="no"?>
<!-- Created with Inkscape (http://www.inkscape.org/) -->

<svg
   width="80.962502mm"
   height="28.603443mm"
   viewBox="0 0 80.962502 28.603443"
   version="1.1"
   id="svg5"
   xml:space="preserve"
   xmlns:inkscape="http://www.inkscape.org/namespaces/inkscape"
   xmlns:sodipodi="http://sodipodi.sourceforge.net/DTD/sodipodi-0.dtd"
   xmlns="http://www.w3.org/2000/svg"
   xmlns:svg="http://www.w3.org/2000/svg"><sodipodi:namedview
     id="namedview7"
     pagecolor="#ffffff"
     bordercolor="#000000"
     borderopacity="0.25"
     inkscape:showpageshadow="2"
     inkscape:pageopacity="0.0"
     inkscape:pagecheckerboard="0"
     inkscape:deskcolor="#d1d1d1"
     inkscape:document-units="mm"
     showgrid="false" /><defs
     id="defs2" /><g
     inkscape:label="Layer 1"
     inkscape:groupmode="layer"
     id="layer1"
     transform="translate(-2.2591367,-2.8515004)"><path
       style="fill:#ffffff;stroke-width:0.264583"
       d="m 73.623696,31.450833 -0.32394,-0.004 0.38183,-0.24158 0.38184,-0.24158 -0.3256,-0.7146 -0.32559,-0.7146 0.15269,-0.15269 0.1527,-0.15269 0.16118,0.61636 0.16118,0.61637 0.34812,-0.62792 0.34811,-0.62792 0.009,0.34387 0.009,0.34387 -0.40367,0.78061 -0.40367,0.78061 -0.32393,-0.004 z m -29.807713,-0.59916 -0.536012,0.0404 -0.153117,-0.24775 -0.153114,-0.24775 0.16352,-0.26458 0.163521,-0.26458 0.447408,-0.0186 0.447405,-0.0186 -0.529167,-0.24375 -0.529167,-0.24373 0.529167,0.0662 0.529167,0.0662 0.0782,0.66812 0.0782,0.66814 -0.536009,0.0404 z m -0.297463,-0.19054 h 0.24897 l 0.16352,-0.26458 0.163521,-0.26458 h -0.412488 -0.412491 v 0.26458 0.26458 z m 1.925542,0.2437 -0.339034,0.0209 -0.123987,-0.39688 -0.123989,-0.39688 -0.120737,-0.3884 -0.120735,-0.38841 0.199514,-0.1233 0.199515,-0.12331 0.384244,0.24307 0.384241,0.24307 -0.330729,0.004 -0.33073,0.004 v 0.50712 0.50712 l 0.33073,0.13345 0.330729,0.13346 -0.339032,0.0209 z m 1.359916,-0.001 -0.09484,0.11024 v -1.10243 -1.10243 h 0.247949 0.247949 l -0.153106,0.99219 -0.153107,0.99218 z m 1.558803,0.0137 -0.198437,-0.008 -0.463021,-0.63677 -0.463021,-0.63677 v -0.18967 -0.18968 l 0.509365,0.46097 0.509365,0.46097 0.112451,-0.75069 0.112451,-0.75069 0.03964,1.12448 0.03964,1.12437 -0.198438,-0.008 z m 1.487604,-0.0224 -0.430623,0.0307 -0.301545,-0.36334 -0.301546,-0.36334 0.165928,-0.4324 0.165926,-0.4324 0.794877,0.0606 0.794874,0.0606 0.22088,0.53673 0.220877,0.53674 0.176659,-0.59532 0.176664,-0.59531 h 0.20286 0.20287 l 0.17666,0.59531 0.17666,0.59532 0.24255,-0.59532 0.24254,-0.59531 h 0.12706 0.12705 l -0.29084,0.83433 -0.29085,0.83432 -0.37213,-0.5036 -0.37213,-0.50359 -0.297388,0.52545 -0.29739,0.52546 -0.336854,-0.79004 -0.336854,-0.79004 -0.01193,0.33073 -0.01193,0.33064 h -0.529175 -0.529166 v 0.24518 0.24518 l 0.46302,0.121 0.463021,0.12101 -0.430625,0.0307 z m -0.120589,-1.04853 0.507116,0.0209 -0.159851,-0.15986 -0.159853,-0.15985 -0.347265,0.13897 -0.347266,0.13896 0.507119,0.0209 z m 5.36215,0.0722 -0.34046,0.9774 -0.3627,-0.84511 -0.3627,-0.84511 -0.10322,-0.26458 -0.10322,-0.26458 0.42985,0.52916 0.42986,0.52917 0.38051,-0.51359 0.38052,-0.51359 -0.004,0.11672 -0.004,0.11671 -0.34047,0.9774 z m 1.29757,1.00688 h -0.35517 l -0.32938,-0.39687 -0.32938,-0.39688 0.32938,-0.39687 0.32938,-0.39688 h 0.31156 0.31156 l 0.30512,0.30512 0.30511,0.30512 -0.2615,0.48863 -0.26151,0.48863 z m -0.0231,-0.26458 h 0.39687 v -0.52917 -0.52916 h -0.39687 -0.39688 v 0.52916 0.52917 z m 1.38208,-0.13229 -0.13007,0.52917 -0.0307,-0.8158 -0.0307,-0.8158 h 0.39267 0.39268 l -0.23192,0.28663 -0.23191,0.28663 z m 1.16298,0.0477 -0.28001,0.48148 0.028,-1.19063 0.028,-1.19062 0.11466,0.59531 0.11466,0.59531 h 0.24618 0.24619 v -0.26458 -0.26458 h 0.29697 0.29699 l -0.30983,0.37332 -0.30983,0.37332 0.27743,0.17146 0.27743,0.17146 -0.008,0.31512 -0.008,0.31511 -0.36498,-0.48148 -0.36498,-0.48148 -0.28002,0.48148 z m 2.91018,0.34919 h -0.19002 l -0.3175,-0.3175 -0.3175,-0.3175 v -0.74084 -0.74083 h 0.26458 0.26458 v 0.94544 0.94545 l 0.46302,-0.0885 0.46302,-0.0886 0.16361,-0.92304 0.16361,-0.92304 0.0348,0.96388 0.0348,0.96388 -0.41851,0.1606 -0.41852,0.1606 z m 1.78833,-0.50955 -0.17936,0.64184 -0.0264,-0.8599 -0.0264,-0.85989 h 0.66146 0.66146 l -0.0396,0.85989 -0.0396,0.8599 -0.11174,-0.74329 -0.11174,-0.74329 -0.30434,0.10145 -0.30434,0.10145 z m 1.80236,0.17882 -0.121,0.46302 v -0.926 -0.92604 l 0.121,0.46302 0.121,0.46302 z m 1.1935,0.33073 h -0.20153 l -0.29961,-0.79375 -0.29961,-0.79375 h 0.2416 0.2416 v 0.39687 0.39688 h 0.23628 0.23627 l 0.1298,-0.33825 0.1298,-0.33825 0.79548,-0.0606 0.79548,-0.0606 0.15306,0.39886 0.15306,0.39887 h -0.66877 -0.66877 l 0.17467,0.28262 0.17467,0.28262 0.37011,-0.14203 0.37011,-0.14202 v 0.27468 0.27468 l -0.58446,-0.0846 -0.58447,-0.0845 -0.15951,-0.66146 -0.15952,-0.66146 -0.1871,0.72761 -0.1871,0.7276 z m 1.53454,-1.05834 h 0.35277 l -0.17638,-0.17639 -0.17639,-0.17638 -0.17639,0.17638 -0.17639,0.17639 z m 1.24978,0.66146 -0.13007,0.52917 -0.0307,-0.8158 -0.0307,-0.8158 h 0.39268 0.39267 l -0.23191,0.28664 -0.23191,0.28663 z m 1.182,0.37828 -0.44741,-0.0186 0.52917,-0.21759 0.52916,-0.21759 -0.46302,-0.18899 -0.46302,-0.189 v -0.36857 -0.36857 l 0.59532,0.0307 0.59531,0.0307 -0.48205,0.12467 -0.48205,0.12466 0.45633,0.33368 0.45632,0.33367 -0.18833,0.30472 -0.18833,0.30472 -0.4474,-0.0186 z m 1.19018,-0.31213 -0.121,0.46302 v -0.926 -0.92604 l 0.121,0.46302 0.121,0.46302 z m 1.07439,0.33075 -0.19844,-2e-5 v -0.66146 -0.66146 -0.13229 -0.13229 l 0.17304,-0.0661 0.17304,-0.0661 0.0254,0.85991 0.0254,0.85992 -0.19844,-2e-5 z m -7.47448,-1.85211 h -0.13229 v -0.13229 -0.13229 h 0.13229 0.13229 v 0.13229 0.13229 z m 6.48229,0 h -0.35277 l 0.17638,-0.17639 0.17639,-0.17638 0.17639,0.17638 0.17639,0.17639 z m -40.366314,-2.79229 -0.776388,0.12436 -0.727604,-0.27556 -0.727604,-0.27556 v -0.18769 -0.18768 l 1.35559,0.0113 1.355587,0.0113 0.296704,-0.46302 0.296704,-0.46303 -0.290854,-0.46302 -0.290851,-0.46302 -1.137068,-0.4227 -1.137068,-0.4227 -0.356664,-0.48776 -0.356663,-0.48777 v -0.34631 -0.3463 l 0.529166,-0.52917 0.529167,-0.52916 h 0.904401 0.904404 l 0.418513,0.16059 0.418515,0.1606 v 0.23122 0.23121 l -1.13474,-0.15553 -1.134737,-0.15553 -0.371273,0.44735 -0.371272,0.44736 0.264644,0.41955 0.264647,0.41955 1.025382,0.355 1.025382,0.35499 0.480568,0.43491 0.480566,0.43491 v 0.71173 0.71174 l -0.480383,0.43474 -0.48038,0.43474 z m 34.942364,-0.0406 -0.52917,0.14005 -0.68937,-0.25036 -0.68938,-0.25035 -0.30281,-0.6646 -0.30282,-0.6646 v -0.79333 -0.79333 l 0.64944,-0.64943 0.64943,-0.64943 h 0.80578 0.80577 l 0.52917,0.52916 0.52916,0.52917 v 1.28191 1.28191 l -0.46302,0.40659 -0.46302,0.40659 z m -0.4529,-0.34205 h 0.0908 l 0.50038,-0.2678 0.50039,-0.2678 0.17334,-0.92399 0.17335,-0.92399 -0.43264,-0.66029 -0.43264,-0.6603 h -0.50417 -0.50417 l -0.41577,0.41578 -0.41578,0.41577 v 1.02443 1.02444 l 0.58804,0.41187 0.58804,0.41188 z m -63.4439764,0.26458 h -0.264583 v -3.0427 -3.04271 l 0.463021,0.005 0.46302,0.005 1.517844,2.57428 1.517843,2.57428 0.0035,-2.57969 0.0035,-2.57969 h 0.396875 0.396875 v 3.04271 3.04271 h -0.471212 -0.471234 l -1.41182,-2.38476 -1.411819,-2.38477 -0.233613,-0.14438 -0.233614,-0.14439 v 2.52916 2.52916 z m 6.90587,0 h -0.801835 l -0.273893,-0.51177 -0.273892,-0.51177 v -0.37326 -0.37326 l 0.483854,-0.43789 0.483854,-0.43788 h 0.9897574 0.989756 l -0.08455,-0.59531 -0.08455,-0.59531 -1.1244794,0.0228 -1.124479,0.0228 v -0.19297 -0.19297 l 0.418514,-0.1606 0.418515,-0.1606 h 0.7532114 0.753212 l 0.415774,0.41578 0.415774,0.41577 v 1.83318 1.83319 h -0.26458 -0.264583 v -0.27389 -0.2739 l -0.511773,0.2739 -0.511772,0.27389 z m 0.207936,-0.52916 h 0.5158314 l 0.418515,-0.1606 0.418515,-0.1606 v -0.63315 -0.63315 H 10.056041 9.1216946 l -0.152295,0.39687 -0.152295,0.39688 0.152295,0.39687 0.152295,0.39688 z m 4.8584194,0.4798 -0.860066,0.0829 -0.264413,-0.69546 -0.264413,-0.69546 v -1.30569 -1.3057 H 12.84247 12.577886 v -0.26458 -0.26458 h 0.396875 0.396875 v -0.64585 -0.64584 l 0.264584,-0.16352 0.264583,-0.16352 v 0.80936 0.80937 h 0.661458 0.661459 v 0.26458 0.26458 h -0.674084 -0.674083 l 0.07877,1.65365 0.07877,1.65365 0.593159,0.008 0.59316,0.007 0.0683,0.25707 0.0683,0.25707 z m 2.172283,0.0494 h -0.407576 l 0.07685,-2.16152 0.07685,-2.16152 0.330729,-0.10949 0.330729,-0.10949 v 2.27101 2.27101 z m 3.409164,0 h -0.324526 l -0.139678,-0.22601 -0.139679,-0.226 -0.690425,-1.91402 -0.690426,-1.91402 0.135428,-0.13543 0.135428,-0.13543 0.261956,0.1619 0.261956,0.1619 0.452334,1.38595 0.452334,1.38595 0.145198,0.25106 0.145198,0.25105 0.569563,-1.70626 0.569562,-1.70627 0.412256,-0.0801 0.412256,-0.0801 -0.822105,2.2629 -0.822105,2.26289 z m 4.404307,0 h -0.752906 l -0.54837,-0.69714 -0.54837,-0.69714 v -0.85468 -0.85468 l 0.54837,-0.69714 0.54837,-0.69714 h 0.891836 0.891834 l 0.41188,0.58804 0.411876,0.58804 v 0.60258 0.60259 h -1.455208 -1.455208 v 0.49677 0.49677 l 0.399113,0.33123 0.399116,0.33124 0.923801,-0.14991 0.923803,-0.14991 v 0.21964 0.21964 l -0.418515,0.1606 -0.418513,0.1606 z m 0.02085,-2.64584 h 1.076736 l -0.08455,-0.59531 -0.08455,-0.59531 -0.646633,-0.0913 -0.646634,-0.0913 -0.345554,0.47257 -0.345564,0.47257 v 0.21402 0.21401 h 1.076735 z m 11.196505,2.59223 -0.782883,0.0787 -0.188929,-0.18893 -0.188939,-0.18893 v -1.80798 -1.80799 h -0.396875 -0.396875 v -0.26458 -0.26459 h 0.396875 0.396875 v -0.66145 -0.66146 h 0.396875 0.396875 v 0.66146 0.66145 h 0.529167 0.529167 v 0.26459 0.26458 h -0.529168 -0.529167 v 1.74847 1.74848 l 0.687353,-0.17252 0.687354,-0.17251 -0.112417,0.34227 -0.112416,0.34227 -0.782883,0.0787 z m 3.237273,0.0536 h -0.663852 l -0.411879,-0.58804 -0.411877,-0.58804 v -1.66092 -1.66092 h 0.396875 0.396875 v 1.56586 1.56586 l 0.160599,0.41852 0.1606,0.41851 h 0.479218 0.479222 l 0.418512,-0.1606 0.418516,-0.1606 v -1.82377 -1.82378 h 0.396875 0.396875 v 2.24896 2.24896 h -0.264584 -0.264583 v -0.27389 -0.2739 l -0.511773,0.2739 -0.511773,0.27389 z m 5.177506,-0.004 -0.711988,-0.004 -0.291121,-0.19438 -0.291119,-0.1944 -0.304194,-0.57792 -0.304191,-0.57792 v -0.69624 -0.69625 l 0.304191,-0.57792 0.304194,-0.57792 0.291119,-0.19438 0.291121,-0.19439 0.674687,-0.004 0.674688,-0.004 0.3175,0.3175 0.3175,0.3175 v -1.11125 -1.11125 h 0.396875 0.396875 v 3.04271 3.04271 h -0.211667 -0.211667 l -0.287636,-0.28764 -0.287637,-0.28763 -0.17777,0.28763 -0.177769,0.28764 z m 0.06124,-0.52512 h 0.576146 l 0.3175,-0.3175 0.3175,-0.3175 v -1.14338 -1.14338 l -0.682006,-0.3108 -0.682006,-0.31075 -0.442473,0.27722 -0.442474,0.27722 -0.08231,1.11708 -0.08232,1.11709 0.313151,0.37732 0.313147,0.37732 z m 3.52625,0.52978 -0.330729,5.3e-4 0.08558,-2.24957 0.08559,-2.24949 h 0.245142 0.245144 v 2.24896 2.24896 l -0.330729,5.3e-4 z m 3.603765,-0.0541 -1.051459,0.0788 -0.413796,-0.47567 -0.413792,-0.47567 -0.164997,-0.69624 -0.164997,-0.69624 0.289582,-0.8307 0.289583,-0.8307 0.483942,-0.25899 0.483944,-0.259 h 0.637844 0.637844 l 0.43788,0.48385 0.43789,0.48386 v 0.70677 0.70677 h -1.455212 -1.455209 v 0.11507 0.11506 l 0.270955,0.71267 0.270954,0.71266 1.066258,-0.14301 1.066254,-0.14302 -0.101,0.30747 -0.10101,0.30747 z m -0.262599,-2.59239 h 1.222897 v -0.21401 -0.21401 l -0.34822,-0.47622 -0.34821,-0.47621 -0.480072,0.0949 -0.480066,0.0949 -0.394612,0.59531 -0.394613,0.59531 z m 4.167067,2.62495 -0.9598,-0.0209 -0.33237,-0.134 -0.33238,-0.13401 0.13399,-0.2168 0.13399,-0.2168 1.01865,0.13663 1.01864,0.13663 0.16085,-0.41916 0.16084,-0.41915 -0.57695,-0.40412 -0.57696,-0.40412 h -0.29699 -0.297 l -0.46108,-0.50948 -0.46107,-0.50948 0.0919,-0.47724 0.0919,-0.47724 0.68788,-0.24192 0.68788,-0.24191 0.69861,0.17534 0.69862,0.17534 v 0.22358 0.22357 l -0.98337,-0.0302 -0.98335,-0.0302 -0.0823,0.40045 -0.0823,0.40045 1.13183,0.52559 1.13182,0.5256 0.0865,0.60987 0.0865,0.60988 -0.31729,0.38231 -0.31729,0.38231 -0.95979,-0.0209 z m 4.86104,0.0209 h -0.39688 v -3.04271 -3.04271 h 1.85209 1.85208 v 0.26459 0.26458 h -1.45521 -1.45521 v 1.05833 1.05834 h 1.32292 1.32292 v 0.26458 0.26458 h -1.32292 -1.32292 v 1.45521 1.45521 z m 9.26041,0 h -0.39687 v -2.24896 -2.24896 h 0.21166 0.21167 l 0.28764,0.28764 0.28763,0.28764 0.17778,-0.28764 0.17776,-0.28764 h 0.51356 0.51355 v 0.20658 0.20658 l -0.79375,0.2996 -0.79375,0.29961 v 1.74278 1.74277 z m 4.26963,0 h -0.65995 l -0.41578,-0.41578 -0.41577,-0.41577 v -1.83318 -1.83319 h 0.39687 0.39688 v 1.86039 1.86039 l 0.39747,0.15252 0.39746,0.15252 0.66087,-0.16587 0.66086,-0.16586 v -1.84705 -1.84704 h 0.39688 0.39687 v 2.24896 2.24896 h -0.26458 -0.26458 v -0.27389 -0.2739 l -0.51178,0.2739 -0.51177,0.27389 z m 3.65578,0 h -0.38478 v -2.24896 -2.24896 h 0.39687 0.39688 v 0.2739 0.27389 l 0.51177,-0.27389 0.51177,-0.2739 h 0.51417 0.51416 l 0.33492,0.40355 0.33491,0.40355 0.44592,-0.40355 0.44592,-0.40355 h 0.65385 0.65386 l 0.3175,0.3175 0.3175,0.3175 v 1.93146 1.93146 h -0.39688 -0.39687 v -1.98438 -1.98437 h -0.60854 -0.60855 l -0.3175,0.3175 -0.3175,0.3175 v 1.66687 1.66688 h -0.39687 -0.39688 l -0.004,-1.65365 -0.004,-1.65364 -0.24495,-0.38729 -0.24495,-0.38728 -0.74318,0.2604 -0.74319,0.2604 -0.0782,1.78053 -0.0782,1.78053 h -0.38488 z m -60.429581,-5.02717 h -0.248969 l -0.163521,-0.26458 -0.163522,-0.26458 0.163522,-0.26459 0.163521,-0.26458 h 0.248969 0.248968 v 0.52917 0.52916 z m 30.956249,0 h -0.24897 l -0.16352,-0.26458 -0.163521,-0.26458 0.163521,-0.26459 0.16352,-0.26458 h 0.24897 0.248968 v 0.52917 0.52916 z m -5.023686,-2.65744 -1.474221,-0.0116 -1.005948,-0.35882 -1.005949,-0.35881 -1.023318,-0.70916 -1.023318,-0.70916 -0.679501,-0.98052 -0.6795,-0.98052 -0.434147,-1.274149 -0.434147,-1.27415 0.131199,-1.634462 0.131199,-1.6344624 0.551672,-1.081367 0.551673,-1.081367 0.701992,-0.834269 0.70199,-0.834269 1.122463,-0.657807 1.12246,-0.657806 1.49977,-0.277247 1.499766,-0.277247 1.599975,0.409894 1.599975,0.409894 1.143527,0.786767 1.143526,0.786767 0.799778,1.207445 0.799777,1.207444 0.320244,1.334922 0.320243,1.3349214 -0.177564,1.338533 -0.177562,1.338533 -0.635011,1.253132 -0.635008,1.25313 -1.217826,1.07197 -1.217825,1.07197 -1.223081,0.41675 -1.223081,0.41675 -1.474222,-0.0116 z m 0.413933,-0.88629 1.623573,-0.0947 1.354135,-0.73701 1.354138,-0.73701 0.673856,-0.88347 0.673857,-0.88348 0.397251,-0.950749 0.397248,-0.950752 0.0073,-1.530412 0.0073,-1.5304114 -0.583814,-1.357116 -0.583816,-1.357116 -0.94148,-0.826631 -0.941481,-0.82663 -1.075629,-0.48855 -1.075631,-0.488549 -1.5875,-0.0032 -1.5875,-0.0032 -1.33763,0.622872 -1.33763,0.622873 -0.987246,1.153376 -0.987247,1.153377 -0.417558,1.436348 -0.41756,1.4363494 0.157462,1.148807 0.157464,1.148808 0.657635,1.297776 0.657635,1.29779 0.991452,0.81724 0.991454,0.81724 1.068176,0.39541 1.068176,0.39542 1.623571,-0.0947 z m -0.414822,-0.98126 -0.414998,-0.0271 -0.893432,-0.21094 -0.893429,-0.21094 -1.070631,-0.75416 -1.070632,-0.75417 -0.615627,-1.16609 -0.615624,-1.166094 V 10.765233 9.2088076 l 0.521488,-1.022201 0.521489,-1.022201 0.999865,-0.82478 0.999866,-0.824781 0.926042,-0.257669 0.926041,-0.257669 0.944745,-0.0015 0.944743,-0.0015 1.434869,0.727604 1.434867,0.727605 0.772851,1.115204 0.772851,1.115204 0.122015,1.4713304 0.122012,1.471329 -0.438364,1.147839 -0.438362,1.147841 -0.96603,0.96603 -0.966028,0.96602 -1.322793,0.39283 -1.322795,0.39284 z m 0.05856,-1.03289 1.267312,0.002 1.047496,-0.53439 1.047499,-0.53439 0.650168,-0.98696 0.650169,-0.986964 0.178321,-1.12841 0.178321,-1.12841 -0.448495,-1.1743644 -0.448493,-1.174365 -0.901636,-0.791646 -0.901634,-0.791646 -0.999421,-0.277541 -0.999419,-0.277541 h -0.264583 -0.264583 l -0.999419,0.277541 -0.999421,0.277541 -0.95822,0.841329 -0.95822,0.841329 -0.357466,0.855531 -0.357462,0.855532 V 10.8198 11.897172 l 0.501012,0.981647 0.501012,0.981644 0.491765,0.4447 0.491766,0.4447 0.79316,0.41357 0.79316,0.41356 1.267311,0.002 z m -0.0021,-1.05691 -0.47152,-2.1e-4 -1.066953,-0.52814 -1.066953,-0.528148 -0.454401,-0.769239 -0.454401,-0.769239 0.0011,-1.149802 0.0011,-1.1498014 0.533969,-0.875818 0.533971,-0.875817 0.911752,-0.380954 0.911685,-0.380953 h 0.696116 0.696116 l 0.895713,0.425043 0.895709,0.425043 0.565375,0.914794 0.565375,0.914795 -0.12632,1.3146304 -0.12632,1.31463 -0.63332,0.686923 -0.633322,0.686923 -0.851398,0.36278 -0.851397,0.36277 -0.471519,-2.1e-4 z m -0.02878,-1.064004 1.14483,-0.0059 0.564346,-0.457137 0.564346,-0.457138 0.29555,-0.577918 0.29555,-0.577919 v -0.559699 -0.559701 l -0.414449,-0.8014544 -0.414448,-0.801453 -0.935876,-0.391035 -0.935877,-0.391034 -0.75919,0.166746 -0.75919,0.166746 -0.66861,0.794598 -0.66861,0.794599 v 1.0583854 1.058386 l 0.773398,0.773397 0.773396,0.773398 1.144834,-0.0059 z"
       id="path1135" /></g></svg>
