<?xml version="1.0" encoding="UTF-8" standalone="no"?>
<!-- Created with Inkscape (http://www.inkscape.org/) -->

<svg
   width="93.397911mm"
   height="16.139591mm"
   viewBox="0 0 93.397911 16.139591"
   version="1.1"
   id="svg5"
   xml:space="preserve"
   xmlns:inkscape="http://www.inkscape.org/namespaces/inkscape"
   xmlns:sodipodi="http://sodipodi.sourceforge.net/DTD/sodipodi-0.dtd"
   xmlns="http://www.w3.org/2000/svg"
   xmlns:svg="http://www.w3.org/2000/svg"><sodipodi:namedview
     id="namedview7"
     pagecolor="#ffffff"
     bordercolor="#000000"
     borderopacity="0.25"
     inkscape:showpageshadow="2"
     inkscape:pageopacity="0.0"
     inkscape:pagecheckerboard="0"
     inkscape:deskcolor="#d1d1d1"
     inkscape:document-units="mm"
     showgrid="false" /><defs
     id="defs2" /><g
     inkscape:label="Layer 1"
     inkscape:groupmode="layer"
     id="layer1"
     transform="translate(-1.468777,-1.7672841)"><path
       style="fill:#ffffff;stroke-width:0.264583"
       d="m 43.089635,17.895254 -1.00732,-0.0116 -0.95645,-0.3418 -0.95645,-0.3418 -0.82846,-0.58992 -0.82847,-0.58992 -0.66141,-1.12861 -0.66141,-1.12861 -0.16382,-1.19517 -0.16381,-1.19517 0.4296,-1.4777898 0.42961,-1.4778 0.69246,-0.82294 0.69247,-0.82295 1.08341,-0.55272 1.08342,-0.55272 1.66082,-0.13331 1.66083,-0.13332 1.18843,0.45387 1.18842,0.45386 0.92885,1.08515 0.92884,1.08514 v 0.20429 0.20428 l -1.60167,0.93872 -1.60168,0.9387098 h -0.34169 -0.34169 l -0.47889,-0.52916 -0.47889,-0.5291698 h -0.48816 -0.48817 l -0.52916,0.5291698 -0.52917,0.52916 v 0.90684 0.90684 l 0.69714,0.54837 0.69715,0.54837 h 0.21414 0.21415 l 0.74236,-0.63983 0.74236,-0.63984 1.78416,0.97057 1.78417,0.97056 0.002,0.37608 0.002,0.37608 -1.15246,1.10426 -1.15246,1.10425 -1.21366,0.3056 -1.21382,0.3056 -1.00732,-0.0116 z m 33.66088,-0.0924 -1.59528,0.0903 -0.66317,-0.21759 -0.66317,-0.2176 -0.82667,-0.42748 -0.82666,-0.42749 -0.6671,-0.7928 -0.66711,-0.79281 -0.45953,-1.20328 -0.45954,-1.20328 0.14648,-1.41924 0.14648,-1.4192398 0.54409,-1.0665 0.54409,-1.0665 0.96184,-0.79283 0.96184,-0.79283 1.15517,-0.32343 1.15516,-0.32343 1.57091,0.11363 1.57091,0.11363 1.09258,0.72304 1.09259,0.72304 0.50513,0.83062 0.50512,0.83061 -0.0935,0.15134 -0.0935,0.15133 -1.7268,0.92262 -1.72679,0.9226098 -0.6304,-0.59223 -0.63041,-0.5922398 h -0.44597 -0.44597 l -0.52916,0.5291698 -0.52917,0.52916 v 0.90684 0.90684 l 0.69714,0.54837 0.69714,0.54837 h 0.21415 0.21414 l 0.74236,-0.63983 0.74236,-0.63984 1.78416,0.97057 1.78417,0.97056 0.002,0.23961 0.002,0.23961 -0.67678,0.88731 -0.67679,0.88731 -1.10137,0.56188 -1.10136,0.56187 -1.59528,0.0903 z M 1.9979441,17.642284 h -0.529167 v -5.95313 -5.9531198 h 0.511973 0.511972 l 3.787507,4.7694998 3.7875059,4.7695 0.0721,-4.7695 0.0721,-4.7694998 h 0.5232 0.5232 v 5.9725198 5.97253 l -0.40305,-0.0855 -0.40306,-0.0855 -3.9625699,-5.00545 -3.962574,-5.0054498 v 5.0715998 5.07159 z m 16.9204309,-0.06 -0.40978,0.0783 -0.18553,-0.18553 -0.18554,-0.18554 v -2.27221 -2.27222 l -2.37319,-3.3060798 -2.37319,-3.30609 -0.008,-0.19843 -0.008,-0.19844 h 0.61476 0.61476 l 1.22182,1.78594 1.22182,1.78593 0.9015,1.2657398 0.9015,1.26575 2.09056,-3.0407498 2.09057,-3.04075 0.59532,-0.0109 0.59531,-0.0109 v 0.1689 0.16889 l -2.3704,3.3652 -2.3704,3.3651898 -0.077,2.34991 -0.077,2.34991 z m 12.01542,0.0483 -1.55148,-0.0117 -0.96631,-0.51052 -0.96631,-0.51051 -0.62119,-0.99915 -0.62119,-0.99914 -0.0884,-4.43177 -0.0885,-4.4317698 h 0.52375 0.52374 l 0.10329,4.16719 0.10329,4.1671798 0.45808,0.85542 0.45808,0.85542 0.77613,0.40135 0.77613,0.40136 h 1.21691 1.2169 l 0.77613,-0.40136 0.77614,-0.40135 0.45807,-0.85542 0.45808,-0.85542 0.10329,-4.1671798 0.10329,-4.16719 h 0.52421 0.52421 l -0.0889,4.2994798 -0.0889,4.29948 -0.62651,1.09329 -0.6265,1.09328 -0.99702,0.56036 -0.99702,0.56036 -1.55147,-0.0117 z m 28.34644,0.0117 h -2.51354 v -3.32469 -3.32468 l -0.27389,-0.51178 -0.27389,-0.5117698 h -0.50096 -0.50096 l -0.41577,0.4157798 -0.41578,0.41577 v 3.28839 3.2884 h -2.51354 -2.51354 v -5.82084 -5.8208298 h 2.51354 2.51354 v 0.54718 0.54719 l 0.8599,-0.61333 0.85989,-0.61333 h 1.76857 1.76856 l 0.79669,0.76327 0.79668,0.76327 0.81598,-0.6866 0.81597,-0.6866 0.93479,-0.17536 0.93478,-0.17537 1.19057,0.1342 1.19057,0.13419 0.67012,0.62596 0.67013,0.62595 0.37173,0.71447 0.37174,0.71446 v 4.6433498 4.64335 h -2.51354 -2.51355 v -3.32469 -3.32468 l -0.27389,-0.51178 -0.27389,-0.5117698 h -0.50096 -0.50096 l -0.41577,0.4157798 -0.41578,0.41577 v 3.42068 3.42069 z m 25.66458,0 h -2.51355 v -7.9374998 -7.9375 h 2.51355 2.51354 v 2.53156 2.53156 l 0.84259,-0.59998 0.84259,-0.59998 1.47251,-0.0956 1.47252,-0.0956 0.90559,0.4996 0.9056,0.49961 0.48346,0.90147 0.48347,0.90147 v 4.5681998 4.56819 h -2.51354 -2.51354 v -3.1924 -3.1924 l -0.27389,-0.51177 -0.2739,-0.5117698 h -0.50096 -0.50095 l -0.41578,0.4157698 -0.41577,0.41578 v 3.42068 3.42069 z"
       id="path655"
       inkscape:export-filename="nyu-cmch-white.svg"
       inkscape:export-xdpi="96"
       inkscape:export-ydpi="96" /></g></svg>
