<?xml version="1.0" encoding="UTF-8" standalone="no"?>
<!-- Created with Inkscape (http://www.inkscape.org/) -->

<svg
   width="72.899078mm"
   height="48.449532mm"
   viewBox="0 0 72.899078 48.449532"
   version="1.1"
   id="svg5"
   xml:space="preserve"
   xmlns:inkscape="http://www.inkscape.org/namespaces/inkscape"
   xmlns:sodipodi="http://sodipodi.sourceforge.net/DTD/sodipodi-0.dtd"
   xmlns="http://www.w3.org/2000/svg"
   xmlns:svg="http://www.w3.org/2000/svg"><sodipodi:namedview
     id="namedview7"
     pagecolor="#ffffff"
     bordercolor="#000000"
     borderopacity="0.25"
     inkscape:showpageshadow="2"
     inkscape:pageopacity="0.0"
     inkscape:pagecheckerboard="0"
     inkscape:deskcolor="#d1d1d1"
     inkscape:document-units="mm"
     showgrid="false" /><defs
     id="defs2" /><g
     inkscape:label="Layer 1"
     inkscape:groupmode="layer"
     id="layer1"
     transform="translate(-2.6222766,-2.2316284)"><path
       style="fill:#ffffff;stroke-width:0.264583"
       d="m 5.1391167,50.66771 h -2.51684 l 0.0694,-9.591146 0.0695,-9.591146 2.44739,-0.07608 2.4474,-0.07607 v 3.838435 3.838435 l 3.6018803,-3.828508 3.60188,-3.828505 h 2.74812 2.74812 v 0.160888 0.160885 l -3.82344,3.951912 -3.82344,3.951909 3.85932,5.213766 3.85932,5.213765 0.2611,0.330729 0.2611,0.33073 h -2.91525 -2.91525 l -2.70985,-3.770313 -2.7098503,-3.770313 -0.0998,-0.114207 -0.0998,-0.114205 -0.92208,0.893713 -0.92208,0.893712 v 2.990808 2.990805 z m 23.9665503,-0.07248 -2.26742,0.08593 -1.40689,-0.501272 -1.40689,-0.501272 -0.90821,-0.880274 -0.90822,-0.880274 0.012,-0.278828 0.012,-0.278826 1.29616,-1.42298 1.29615,-1.422979 1.035,0.819735 1.035,0.819737 0.71791,0.272947 0.7179,0.272947 0.64728,-0.162457 0.64729,-0.16246 0.52498,-0.667406 0.52498,-0.667406 v -6.975773 -6.975776 h 2.51354 2.51354 v 6.969408 6.969408 l -0.36521,1.213514 -0.36521,1.213512 -0.57812,0.811892 -0.57812,0.81189 -1.22102,0.715566 -1.22102,0.715565 z m 19.693,-0.01794 -2.64584,0.08803 -1.05833,-0.351208 -1.05833,-0.351205 -0.90149,-0.469646 -0.90149,-0.469648 -1.24705,-1.166472 -1.24706,-1.166474 -0.76187,-1.649494 -0.76188,-1.649505 8e-4,-2.778125 7.9e-4,-2.778125 0.76962,-1.521265 0.76963,-1.521264 1.16121,-1.177845 1.1612,-1.177846 1.4027,-0.686274 1.40269,-0.686273 1.82498,-0.188876 1.82498,-0.188875 1.77139,0.177548 1.77139,0.177552 1.58728,0.846013 1.58727,0.84601 0.438,0.483979 0.43799,0.483978 -0.35707,0.49435 -0.35708,0.494351 -1.03859,1.230114 -1.03858,1.230116 -1.21037,-0.879006 -1.21038,-0.879007 -1.02356,-0.330967 -1.02356,-0.330968 -1.16525,0.13134 -1.16526,0.131341 -1.04357,0.723197 -1.04357,0.723193 -0.67022,1.344954 -0.67022,1.344954 v 1.584306 1.584307 l 0.54714,1.130242 0.54714,1.130242 0.9046,0.794242 0.90459,0.794245 1.10394,0.297259 1.10394,0.297259 0.93775,-0.175924 0.93775,-0.175921 0.93835,-0.508212 0.93835,-0.508212 0.73425,-0.584655 0.73425,-0.584657 1.5147,1.527661 1.51471,1.52766 -1.05833,0.912794 -1.05833,0.912796 -1.45521,0.701942 -1.45521,0.701943 -2.64583,0.08802 z m 19.05803,0.0029 -2.65387,0.08509 -1.11494,-0.364947 -1.11494,-0.364945 -1.15615,-0.677545 -1.15615,-0.677545 -1.00044,-1.107369 -1.00044,-1.107369 -0.6958,-1.486961 -0.6958,-1.486961 v -2.645833 -2.645833 l 0.70768,-1.512906 0.70768,-1.512904 1.20184,-1.284864 1.20184,-1.284865 1.52864,-0.761595 1.52865,-0.761595 2.83095,-0.107471 2.83096,-0.107468 1.40238,0.443772 1.40238,0.44377 1.03256,0.709522 1.03257,0.70952 0.26846,0.430464 0.26846,0.430467 -1.41338,1.605687 -1.41339,1.605688 -0.98878,-0.783133 -0.98879,-0.783132 -0.94088,-0.393126 -0.94088,-0.393123 h -1.07737 -1.07737 l -1.0067,0.51358 -1.0067,0.513577 -0.82041,0.934398 -0.82041,0.934397 -0.27754,0.999421 -0.27754,0.999419 10e-4,1.190625 10e-4,1.190625 0.62106,1.33373 0.62106,1.333727 0.83978,0.706626 0.83978,0.706623 0.98397,0.273274 0.98397,0.273278 0.55583,0.0016 0.55583,0.0016 0.89938,-0.303863 0.89937,-0.303861 1.28027,-0.926542 1.28026,-0.926542 1.49786,1.512478 1.49786,1.512477 -1.05833,0.942899 -1.05833,0.942898 -1.44718,0.673113 -1.44718,0.673113 -2.65386,0.08509 z m -2.83845,-24.171669 -1.93208,0.108294 -1.55104,-0.22189 -1.55103,-0.221891 -1.38227,-0.632821 -1.38226,-0.632821 -0.96933,-0.96933 -0.96933,-0.969331 -0.62852,-1.247927 -0.62853,-1.247927 -0.29749,-1.402085 -0.29749,-1.402086 V 9.9088523 2.2489593 h 3.0427 3.04271 v 7.749146 7.7491447 l 0.59531,1.178407 0.59532,1.178406 0.85356,0.566815 0.85357,0.566815 0.92845,0.174178 0.92845,0.174179 1.02771,-0.276735 1.02772,-0.276734 0.72923,-0.573619 0.72924,-0.573619 0.49012,-1.07913 0.49012,-1.079129 0.006,-7.7390627 0.006,-7.739062 h 3.05951 3.05951 l -0.0878,8.4005207 -0.0878,8.400521 -0.63347,1.585549 -0.63346,1.585549 -1.49846,1.498464 -1.49847,1.498463 -1.75194,0.54112 -1.75194,0.54112 z M 5.5349667,26.061459 h -2.90609 V 14.155209 2.2489593 h 2.76831 2.76832 l 5.1691803,6.777694 5.16919,6.7776947 v -6.7863597 -6.78636 l 2.91148,0.07481 2.91148,0.07481 -0.001,0.198438 -0.001,0.198437 V 14.41979 26.061457 l -2.57969,-0.01117 -2.57969,-0.01117 -5.29166,-6.988581 -5.2916703,-6.988582 -0.0705,6.999749 -0.0705,6.999748 z m 33.4741103,0 h -3.0427 v -4.658243 -4.658243 l -4.49792,-7.0800287 -4.49792,-7.080027 v -0.167979 -0.167979 l 3.37344,0.0062 3.37344,0.0063 2.32147,3.920645 2.32148,3.9206457 0.33656,0.460272 0.33656,0.460272 2.63363,-4.3805897 2.63363,-4.380591 3.40387,-0.0066 3.40386,-0.0066 -0.38367,0.595312 -0.38367,0.595313 -4.14467,6.498703 -4.14468,6.4987027 v 4.812234 4.812235 z"
       id="path1084" /></g></svg>
