<?xml version="1.0" encoding="UTF-8" standalone="no"?>
<!-- Created with Inkscape (http://www.inkscape.org/) -->

<svg
   width="72.851753mm"
   height="12.70006mm"
   viewBox="0 0 72.851753 12.70006"
   version="1.1"
   id="svg5"
   xml:space="preserve"
   xmlns:inkscape="http://www.inkscape.org/namespaces/inkscape"
   xmlns:sodipodi="http://sodipodi.sourceforge.net/DTD/sodipodi-0.dtd"
   xmlns="http://www.w3.org/2000/svg"
   xmlns:svg="http://www.w3.org/2000/svg"><sodipodi:namedview
     id="namedview7"
     pagecolor="#ffffff"
     bordercolor="#000000"
     borderopacity="0.25"
     inkscape:showpageshadow="2"
     inkscape:pageopacity="0.0"
     inkscape:pagecheckerboard="0"
     inkscape:deskcolor="#d1d1d1"
     inkscape:document-units="mm"
     showgrid="false" /><defs
     id="defs2" /><g
     inkscape:label="Layer 1"
     inkscape:groupmode="layer"
     id="layer1"
     transform="translate(-1.7832157,-3.7147938)"><path
       style="fill:#000000;stroke-width:0.0846667"
       d="m 1.7832157,10.064794 v -6.35 h 6.35 6.3500013 v 6.35 6.35 h -6.3500013 -6.35 z m 6.181019,4.80483 c 1.94e-4,-0.0582 0.09528,-0.84878 0.211315,-1.75683 0.116029,-0.90805 0.21112,-1.66053 0.211314,-1.67217 1.94e-4,-0.0116 -0.248024,-0.0212 -0.551594,-0.0212 -0.528141,0 -0.550171,0.008 -0.510784,0.1905 0.02264,0.10477 0.0998,0.78105 0.171465,1.50283 0.170886,1.72109 0.197091,1.86267 0.344768,1.86267 0.06774,0 0.123322,-0.0476 0.123516,-0.10584 z m 0.830772,-3.97933 0.02679,-0.23283 h -0.936957 -0.936957 v 0.25686 0.25687 l 0.910167,-0.024 0.910166,-0.024 z m -1.776963,-0.82694 c -0.686681,-0.5886 -0.823033,-1.30193 -0.411401,-2.15224 l 0.18326,-0.37857 -0.183766,-0.40604 -0.183766,-0.40604 -0.113343,0.31614 c -0.06234,0.17388 -0.246032,0.55488 -0.408206,0.84667 -0.353579,0.63616 -0.443002,1.0516 -0.31188,1.4489 0.199252,0.60374 0.788784,0.96339 1.739941,1.06146 0.04657,0.005 -0.09331,-0.14382 -0.310839,-0.33028 z m 2.447678,0.0654 c 0.6824663,-0.31644 1.1178323,-1.06319 1.2466743,-2.13833 l 0.06088,-0.508 -0.262617,0.36037 c -0.147121,0.20189 -0.451542,0.46253 -0.6922033,0.59267 -0.976813,0.5282 -1.432785,1.0232 -1.568753,1.70304 l -0.05476,0.27379 0.455971,-0.0586 c 0.250784,-0.0322 0.617448,-0.13345 0.81481,-0.22496 z m -1.838137,-0.1001 c -0.1386,-0.36455 -0.09933,-1.07161 0.08166,-1.4704 0.09074,-0.19992 0.379197,-0.58809 0.641021,-0.86258 0.527452,-0.55298 0.523738,-0.52828 0.226188,-1.50442 -0.147094,-0.48256 -0.228306,-0.55028 -0.304607,-0.254 -0.02698,0.10477 -0.322321,0.5334 -0.656307,0.9525 -0.978325,1.22764 -1.179935,1.82544 -0.84022,2.49133 0.143754,0.28179 0.843821,0.97197 0.914347,0.90144 0.01372,-0.0137 -0.01421,-0.12797 -0.06208,-0.25387 z m 0.420965,-0.009 c 0,-0.23902 0.412073,-0.94632 0.68524,-1.17618 0.148628,-0.12506 0.453933,-0.32047 0.678456,-0.43425 0.224523,-0.11377 0.451364,-0.28747 0.504092,-0.38599 0.1117783,-0.20886 0.04106,-0.81684 -0.146604,-1.26043 l -0.125367,-0.29633 -0.16975,0.32689 c -0.09336,0.17979 -0.419116,0.56079 -0.723895,0.84667 -0.807793,0.75769 -1.111884,1.53877 -0.902808,2.31894 0.05771,0.21536 0.200636,0.25859 0.200636,0.0607 z m 34.3746683,0.0452 c 0,-6.29356 0.0015,-6.35 0.169333,-6.35 0.167828,0 0.169334,0.0564 0.169334,6.35 0,6.29356 -0.0015,6.35 -0.169334,6.35 -0.167828,0 -0.169333,-0.0564 -0.169333,-6.35 z m -7.473149,3.54855 c -0.976386,-0.23004 -1.699133,-0.95844 -1.963464,-1.97884 -0.102608,-0.3961 -0.130721,-1.01062 -0.130721,-2.8575 v -2.35288 h 0.804334 0.804333 v 2.35735 c 0,2.29748 0.005,2.36672 0.194965,2.72604 0.533039,1.00799 2.154204,1.00789 2.662535,-1.6e-4 0.183922,-0.36473 0.1905,-0.45902 0.1905,-2.7305 v -2.35273 h 0.804333 0.804334 v 2.28184 c 0,1.36703 -0.03817,2.4617 -0.0952,2.7305 -0.314854,1.48391 -1.396662,2.2811 -3.067554,2.26049 -0.37927,-0.005 -0.833048,-0.0423 -1.008397,-0.0836 z m 13.81544,-0.0637 c -1.478959,-0.48786 -2.447624,-1.88375 -2.447624,-3.52713 0,-1.86091 1.275383,-3.40339 3.041359,-3.6783 1.0516,-0.16371 2.26094,0.16776 3.05464,0.83725 l 0.29633,0.24995 -0.18397,0.186 -0.18397,0.186 -0.33792,-0.26764 c -0.18586,-0.1472 -0.56027,-0.37121 -0.83203,-0.49779 -0.42245,-0.19677 -0.60461,-0.23014 -1.25611,-0.23014 -0.64704,0 -0.83475,0.0339 -1.244299,0.22474 -2.386135,1.11189 -2.388666,4.75396 -0.0041,5.92787 0.486479,0.23949 0.630119,0.27037 1.238039,0.26616 0.83655,-0.006 1.43757,-0.21444 2.03043,-0.70482 0.22627,-0.18716 0.43944,-0.34028 0.47372,-0.34028 0.0343,0 0.12853,0.0732 0.20946,0.16258 0.14194,0.15685 0.12969,0.17633 -0.34671,0.55136 -0.70212,0.55271 -1.25289,0.74568 -2.22952,0.78114 -0.61504,0.0223 -0.91574,-0.008 -1.277704,-0.12695 z m -30.895626,-3.53043 v -3.60163 l 0.733636,0.0245 0.733636,0.0245 1.658198,2.17936 1.658197,2.17937 0.02257,-2.20054 0.02257,-2.20053 h 0.760594 0.760595 v 3.59834 3.59833 h -0.66581 -0.665809 l -1.747191,-2.29535 -1.74719,-2.29534 v 2.29534 2.29535 h -0.762 -0.762001 z m 9.906001,2.15332 v -1.44831 l -1.242315,-1.95952 c -0.683274,-1.07774 -1.297255,-2.04525 -1.364404,-2.15003 l -0.12209,-0.1905 h 0.9261 0.926098 l 0.827917,1.397 c 0.455355,0.76835 0.853275,1.397 0.884269,1.397 0.03099,0 0.432015,-0.62865 0.891159,-1.397 l 0.834808,-1.397 h 0.878229 c 0.483026,0 0.878229,0.0186 0.878229,0.0413 0,0.0227 -0.6096,0.99473 -1.354667,2.16002 l -1.354666,2.11869 v 1.43832 1.43832 h -0.804334 -0.804333 z m 26.33133,-2.1444 v -3.60396 h 0.23758 c 0.21574,0 0.36465,0.18859 1.62114,2.05317 0.76096,1.12924 1.40945,2.08276 1.44109,2.11893 0.0316,0.0362 0.70229,-0.88635 1.490347,-2.05002 1.37468,-2.0299 1.44401,-2.11591 1.70801,-2.11893 l 0.27517,-0.003 v 3.6037 3.6037 l -0.27517,-0.0265 -0.27517,-0.0265 -0.0423,-3.05778 -0.0423,-3.05778 -1.38904,2.02061 c -0.763967,1.11134 -1.396197,2.02061 -1.404957,2.02061 -0.009,0 -0.641,-0.90927 -1.40497,-2.02061 l -1.38903,-2.02061 -0.0423,3.05778 -0.0423,3.05778 -0.23283,0.0268 -0.23284,0.0268 z m 8.777117,3.53627 c -0.031,-0.031 -0.0564,-1.6503 -0.0564,-3.59834 v -3.54189 h 2.58234 2.58233 v 0.254 0.254 h -2.286 -2.286 v 1.397 1.397 h 2.032 2.032 v 0.254 0.254 h -2.032 -2.032 v 1.43934 1.43933 h 2.286 2.286 v 0.254 0.254 h -2.52589 c -1.38924,0 -2.55129,-0.0254 -2.58233,-0.0564 z m 6.54755,-3.54929 v -3.60573 l 1.75684,0.0295 c 1.61695,0.0271 1.79054,0.0449 2.18016,0.2236 0.88617,0.40636 1.26608,0.99541 1.26608,1.96305 0,0.76063 -0.18505,1.1771 -0.73045,1.64394 -0.5758,0.49286 -1.20402,0.64206 -2.70355,0.64206 h -1.26108 v 1.35466 1.35467 h -0.254 -0.254 z m 3.49549,0.25449 c 0.88924,-0.30299 1.39365,-1.20084 1.16174,-2.06789 -0.13608,-0.50875 -0.68423,-1.03906 -1.21117,-1.17174 -0.21361,-0.0538 -0.96205,-0.0978 -1.66322,-0.0978 h -1.27484 v 1.73567 1.73567 h 1.29725 c 0.96074,0 1.3992,-0.0347 1.69024,-0.13391 z"
       id="path224" /></g></svg>
