<?xml version="1.0" encoding="UTF-8" standalone="no"?>
<!-- Created with Inkscape (http://www.inkscape.org/) -->

<svg
   width="101.15115mm"
   height="57.150051mm"
   viewBox="0 0 101.15115 57.150051"
   version="1.1"
   id="svg5"
   xml:space="preserve"
   xmlns:inkscape="http://www.inkscape.org/namespaces/inkscape"
   xmlns:sodipodi="http://sodipodi.sourceforge.net/DTD/sodipodi-0.dtd"
   xmlns="http://www.w3.org/2000/svg"
   xmlns:svg="http://www.w3.org/2000/svg"><sodipodi:namedview
     id="namedview7"
     pagecolor="#ffffff"
     bordercolor="#000000"
     borderopacity="0.25"
     inkscape:showpageshadow="2"
     inkscape:pageopacity="0.0"
     inkscape:pagecheckerboard="0"
     inkscape:deskcolor="#d1d1d1"
     inkscape:document-units="mm"
     showgrid="false" /><defs
     id="defs2" /><g
     inkscape:label="Layer 1"
     inkscape:groupmode="layer"
     id="layer1"
     transform="translate(-5.8878204,-5.0033439)"><path
       style="fill:#ffffff;stroke-width:0.264583"
       d="m 9.7689852,62.153344 h -2.523471 v -2.52347 -2.52347 l 2.447396,0.0761 2.4473958,0.0761 0.07607,2.4474 0.07607,2.44739 z m -0.06585,-1.32292 0.286929,-0.92604 0.3475178,-0.21158 0.347519,-0.21159 v -0.23253 -0.23254 l -0.424907,-0.42491 -0.4249058,-0.4249 -0.368844,0.30611 -0.368843,0.30611 -0.008,-0.23083 -0.008,-0.23084 -0.280331,0.48204 -0.28033,0.48205 0.420668,0.46483 0.420668,0.46483 0.02701,0.77292 0.02701,0.77292 z m -0.208659,-1.05833 h -0.132292 v -0.13229 -0.13229 h 0.132292 0.132291 v 0.13229 0.13229 z m 4.3656248,1.32292 h -0.264584 v -1.45521 -1.45521 h 0.179169 0.179169 l 0.73612,0.8599 0.73612,0.85989 0.01075,-0.85989 0.01075,-0.8599 h 0.264583 0.264583 v 1.45521 1.45521 l -0.198437,0.002 -0.198438,0.002 -0.720486,-0.86228 -0.720487,-0.86228 -0.0071,0.85989 -0.0071,0.85991 z m 3.96875,0 h -0.264584 v -0.55447 -0.55447 l -0.55803,-0.78368 -0.558031,-0.78368 0.183931,-0.18321 0.183931,-0.1832 0.517493,0.63833 0.517493,0.63834 0.400776,-0.57219 0.400777,-0.57219 h 0.271159 0.27116 l -0.550746,0.89113 -0.550746,0.89112 v 0.56408 0.56409 z m 2.894559,0 h -0.79099 l -0.270726,-0.71206 -0.270726,-0.71207 0.07884,-0.677 0.07884,-0.677 h 0.264584 0.264583 l 0.08136,1.12448 0.08136,1.12448 h 0.485646 0.485646 l 0.160599,-0.41851 0.160599,-0.41852 v -0.78772 -0.78773 l 0.264584,0.16352 0.264583,0.16352 v 0.79553 0.79553 l -0.273892,0.51177 -0.273893,0.51178 z m 4.249191,0 h -0.264584 v -0.14939 -0.14939 l 0.561749,-1.30582 0.561748,-1.30582 h 0.19942 0.19942 l 0.580155,1.34861 0.580155,1.34861 -0.186921,0.17274 -0.186921,0.17275 -0.118118,-0.33073 -0.118117,-0.33073 h -0.771702 -0.771701 v 0.26458 0.26459 z m 1.058333,-1.05834 h 0.264583 v -0.39687 -0.39688 h -0.264583 -0.264583 v 0.39688 0.39687 z m 2.116667,1.05834 h -0.264584 v -1.39606 -1.39605 l 1.040019,0.0992 1.04002,0.0992 0.14966,0.39 0.14965,0.39 -0.28199,0.52691 -0.282,0.52691 0.31534,0.37996 0.31534,0.37997 h -0.43757 -0.43758 l -0.15229,-0.39688 -0.1523,-0.39687 h -0.36857 -0.368562 v 0.39687 0.39688 z m 0.813145,-1.32292 h 0.54857 l -0.0886,-0.45998 -0.0886,-0.45998 -0.45998,-0.0886 -0.459983,-0.0886 v 0.54857 0.54856 z m 2.62644,1.32292 h -0.26459 v -1.17123 -1.17122 l -0.46302,-0.121 -0.46302,-0.121 1.32292,-0.0139 1.32292,-0.0139 -0.59532,0.23929 -0.59531,0.23929 v 1.06686 1.06686 h -0.26458 z m 2.73681,-0.0512 -0.83507,0.0811 -0.17274,-0.27949 -0.17273,-0.2795 0.21405,-0.0293 0.21405,-0.0293 0.59531,0.0482 0.59532,0.0482 v -0.22551 -0.22551 l -0.79375,-0.29961 -0.79375,-0.29961 v -0.41054 -0.41055 l 0.51,-0.27295 0.51,-0.27294 0.41604,0.15965 0.41604,0.15965 v 0.25411 0.2541 l -0.5069,-0.16088 -0.5069,-0.16089 -0.1744,0.28219 -0.17441,0.28219 0.82795,0.28863 0.82795,0.28863 -0.0805,0.56442 -0.0805,0.56443 z m 3.34524,-0.0107 -0.99514,0.0703 -0.17088,-0.44531 -0.17088,-0.44531 0.27326,-0.27326 0.27325,-0.27326 v -0.58024 -0.58023 l 0.44385,-0.17032 0.44385,-0.17032 0.40471,0.4047 0.40471,0.40471 -0.31939,0.31939 -0.31939,0.31939 v 0.23998 0.23997 l 0.3638,-0.1396 0.3638,-0.13961 -2.1e-4,0.57432 -2.1e-4,0.57432 -0.99513,0.0703 z m -0.0352,-0.49223 0.0937,-0.27264 -0.14225,-0.14225 -0.14225,-0.14225 -0.31043,0.19186 -0.31044,0.19186 0.35898,0.22303 0.35897,0.22303 z m 0.0386,-1.29791 h 0.26458 v -0.26458 -0.26458 h -0.26458 -0.26459 v 0.26458 0.26458 z m 3.42689,1.85209 h -0.74983 l -0.15293,-0.24745 -0.15293,-0.24744 0.86492,-0.0839 0.86492,-0.0839 -0.8599,-0.46916 -0.85989,-0.46916 v -0.35769 -0.35768 l 0.38417,-0.31884 0.38418,-0.31884 0.54187,0.17198 0.54186,0.17198 v 0.26459 0.26458 l -0.5069,-0.16088 -0.5069,-0.16089 -0.17048,0.27585 -0.17048,0.27584 0.65168,0.24776 0.65168,0.24777 0.15885,0.25703 0.15885,0.25703 -0.16146,0.42075 -0.16146,0.42075 z m 2.86982,-0.0518 -0.67394,0.0805 -0.43014,-0.43014 -0.43013,-0.43014 v -0.51027 -0.51027 l 0.52916,-0.52916 0.52917,-0.52917 h 0.24294 0.24295 l 0.41851,0.1606 0.41852,0.1606 v 0.24132 0.24131 l -0.61495,-0.15434 -0.61495,-0.15434 -0.33295,0.40119 -0.33296,0.40118 0.1803,0.56806 0.18029,0.56806 0.77473,-0.11371 0.77473,-0.11371 -0.0937,0.28596 -0.0937,0.28595 z m 1.90537,0.0518 h -0.26458 v -1.47083 -1.47082 l 0.26458,0.16352 0.26458,0.16352 v 1.30731 1.3073 z m 1.83826,0 h -1.07216 l 0.08,-1.36234 0.08,-1.36233 0.99234,-0.0267 0.99235,-0.0267 -1.6e-4,0.18087 -1.6e-4,0.18086 -0.66968,0.0837 -0.66969,0.0837 v 0.26458 0.26459 l 0.67417,0.0841 0.67417,0.0841 -0.15239,0.24658 -0.15239,0.24657 h -0.51356 -0.51355 v 0.26459 0.26458 h 0.66146 0.66146 v 0.26458 0.26459 z m 2.02823,0 h -0.42691 v -1.3073 -1.30731 l 0.24047,-0.14861 0.24047,-0.14862 0.66849,0.79446 0.66849,0.79446 h 0.14938 0.14937 v -0.80936 -0.80937 l 0.26458,0.16352 0.26459,0.16352 v 1.30731 1.3073 h -0.24107 -0.24106 l -0.6679,-0.79375 -0.66789,-0.79375 h -0.10355 -0.10355 l 0.11649,0.79375 0.1165,0.79375 z m 4.20201,-0.0542 -0.79506,0.0781 -0.32942,-0.32942 -0.32943,-0.32943 v -0.73474 -0.73473 l 0.6485,-0.42492 0.64851,-0.42491 0.54212,0.17206 0.54212,0.17206 v 0.27544 0.27544 l -0.63119,-0.15842 -0.63118,-0.15842 -0.3167,0.38161 -0.31671,0.38161 0.0928,0.47573 0.0929,0.47573 0.78889,0.01 0.78889,0.01 v 0.25501 0.25501 l -0.79505,0.0781 z m 2.51484,0.0542 h -1.05833 v -1.32292 -1.32292 l 1.12448,0.0313 1.12447,0.0313 -0.77192,0.16713 -0.77192,0.16714 -0.11002,0.33073 -0.11003,0.33073 h 0.68351 0.68351 v 0.26458 0.26458 h -0.66146 -0.66146 v 0.26459 0.26458 h 0.79375 0.79375 v 0.26458 0.26459 z m -10.48872,-10.86905 -1.02066,0.18282 -0.89355,-0.1866 -0.89355,-0.1866 -0.69395,-0.51353 -0.69395,-0.51352 -0.37024,-1.04688 -0.37024,-1.04687 0.18779,-1.00101 0.1878,-1.00101 0.85299,-0.93078 0.85299,-0.93078 1.21023,-0.13641 1.21022,-0.13641 0.90898,0.43134 0.90898,0.43134 0.45759,0.77463 0.45758,0.77464 0.06,1.00703 0.06,1.00702 -2.439,0.13229 -2.439,0.1323 0.19004,0.29112 0.19005,0.29112 0.58927,0.31026 0.58927,0.31027 0.88814,-0.37109 0.88814,-0.37109 0.63926,0.48561 0.63925,0.4856 -0.56683,0.57119 -0.56684,0.57119 z m -1.15295,-4.2122 h 1.32291 v -0.24569 -0.24568 l -0.41577,-0.41577 -0.41578,-0.41578 h -0.63324 -0.63326 l -0.27389,0.51177 -0.27389,0.51178 v 0.14968 0.14969 z m -34.305243,4.17776 -2.0749688,0.0829 -1.124479,-0.57047 -1.124479,-0.57046 v -0.32311 -0.3231 l 0.634459,-0.59604 0.63446,-0.59605 0.758849,0.39242 0.75885,0.39242 0.789504,0.0651 0.7895028,0.0651 0.481423,-0.0399 0.481423,-0.0399 -0.08455,-0.56964 -0.08455,-0.56965 -1.6353898,-0.4463 -1.635391,-0.44629 -0.675513,-0.44261 -0.675513,-0.44262 -0.174287,-0.69441 -0.174287,-0.69442 0.236232,-0.94698 0.236232,-0.94699 0.899024,-0.60421 0.899023,-0.60421 1.4822268,0.006 1.482226,0.006 1.137574,0.51629 1.137574,0.51628 -0.258291,0.47009 -0.258291,0.4701 -0.369294,0.4941 -0.369295,0.4941 -0.857566,-0.44346 -0.857565,-0.44347 -0.843048,0.0817 -0.8430478,0.0816 v 0.50712 0.50711 l 0.661459,0.18934 0.6614578,0.18934 1.156814,0.31604 1.156815,0.31604 0.629123,0.62912 0.629123,0.62913 v 1.06618 1.06619 l -0.769302,0.861 -0.769301,0.861 z m 7.163809,0.0556 h -1.169026 l -0.529167,-0.52917 -0.529166,-0.52916 v -2.11667 -2.11667 h -0.396875 -0.396875 v -1.05833 -1.05833 l 0.327093,0.0661 0.327093,0.0661 0.135928,-0.95031 0.135927,-0.95032 h 1.058334 1.058333 l 0.132292,0.95032 0.132291,0.95031 0.859896,0.0829 0.859896,0.0829 v 0.90928 0.90927 h -0.939245 -0.939246 l 0.07935,1.52136 0.07935,1.52135 0.859896,0.0829 0.859896,0.0829 v 0.88097 0.88097 l -0.418514,0.1606 -0.418515,0.1606 z m 5.300555,0 h -1.085633 l -0.615231,-0.65488 -0.61523,-0.65489 -0.126934,-2.63604 -0.126935,-2.63605 0.134899,-0.35154 0.134899,-0.35154 1.212679,0.0965 1.21268,0.0965 0.07607,2.26129 0.07607,2.2613 0.463021,0.29118 0.463021,0.29119 0.463021,-0.29119 0.46302,-0.29118 0.07607,-2.2613 0.07607,-2.26129 1.199359,-0.0954 1.199359,-0.0954 0.113634,0.11363 0.113633,0.11363 v 3.52778 3.52778 h -1.322956 -1.322917 v -0.41188 -0.41188 l -0.588038,0.41188 -0.588038,0.41188 z m 8.731899,0 h -1.13792 l -0.79639,-0.67012 -0.79639,-0.67011 -0.30931,-0.93723 -0.309313,-0.93722 0.178083,-1.18757 0.17809,-1.18757 0.70888,-0.7933 0.70887,-0.7933 1.1189,-0.15004 1.11889,-0.15005 0.65773,0.43096 0.65774,0.43097 h 0.1416 0.1416 v -1.5875 -1.5875 h 1.19062 1.19063 v 4.89479 4.89479 h -1.19063 -1.19062 v -0.39687 -0.39688 h -0.23219 -0.23218 l -0.32938,0.39688 -0.32938,0.39687 z m 1.04117,-2.00496 0.55843,-0.16514 0.33073,-0.42073 0.33073,-0.42072 v -0.65621 -0.6562 l -0.43788,-0.48393 -0.43788,-0.48386 h -0.72035 -0.72034 l -0.34108,0.41098 -0.34108,0.41097 v 0.82088 0.82088 l 0.61014,0.49407 0.61014,0.49406 z m 6.24697,2.00496 h -1.33784 l 0.0736,-3.61291 0.0736,-3.6129 h 1.19062 1.19063 l 0.0736,3.6129 0.0736,3.61291 z m 13.11314,-0.006 -1.60376,-0.006 -0.85166,-0.41991 -0.85167,-0.41992 0.39544,-0.76468 0.39544,-0.76469 0.19164,0.009 0.19164,0.009 0.66146,0.37812 0.66146,0.37813 0.74701,0.009 0.747,0.009 -0.0855,-0.42214 -0.0856,-0.42213 -1.30139,-0.43776 -1.30139,-0.43776 -0.51254,-0.6959 -0.51253,-0.6959 0.18552,-0.8447 0.18553,-0.8447 0.83465,-0.50893 0.83464,-0.50894 1.0007,-0.001 1.00068,-10e-4 0.91755,0.38337 0.91754,0.38338 v 0.21921 0.21921 l -0.3915,0.55894 -0.3915,0.55895 -1.08128,-0.37254 -1.08129,-0.37253 -0.26098,0.16129 -0.26097,0.16129 0.0869,0.26058 0.0869,0.26057 1.43897,0.57508 1.43897,0.57507 0.38091,0.67979 0.3809,0.6798 -0.17618,0.70195 -0.17618,0.70194 -0.57585,0.53649 -0.57585,0.53649 -1.60376,-0.006 z m -13.11314,-7.93147 h -1.32291 v -0.92604 -0.92604 h 1.32291 1.32292 v 0.92604 0.92604 z m -30.4979778,-4.7625 h -1.011483 l -0.649432,-0.64943 -0.649432,-0.64943 v -0.79102 -0.79103 l 0.638611,-0.74236 0.638612,-0.74235 1.743784,0.0193 1.7437848,0.0193 -0.371742,-0.54843 -0.371742,-0.54844 -1.4612478,0.05 -1.461247,0.05 -0.264506,-0.75876 -0.264506,-0.75877 0.812915,-0.28338 0.812915,-0.28338 h 1.296573 1.2965738 l 0.801455,0.41445 0.801453,0.41444 0.376032,0.89997 0.376032,0.89997 v 2.38975 2.38975 h -1.162357 -1.162318 l -0.158592,-0.41328 -0.158592,-0.41329 -0.590045,0.41329 -0.5900448,0.41328 h -1.011489 z m 1.41449,-1.51624 0.5252488,-0.13736 0.280715,-0.52452 0.280716,-0.52452 -0.256862,-0.25687 -0.256862,-0.25686 -0.7331498,0.0868 -0.73315,0.0868 -0.29127,0.47852 -0.29127,0.47852 0.475318,0.35339 0.475318,0.35339 z m 5.9142168,1.51624 h -1.189 l -0.132545,-0.3454 -0.132544,-0.34541 0.0747,-3.29261 0.0747,-3.29262 1.256771,-0.0806 1.256771,-0.0806 v 0.41137 0.41137 h 0.232186 0.232187 l 0.329377,-0.39688 0.329377,-0.39687 h 1.037963 1.037963 l 0.649432,0.64943 0.649431,0.64943 v 3.05474 3.05473 h -1.180696 -1.180696 l -0.07608,-2.41937 -0.07607,-2.41938 -0.463021,-0.29125 -0.463021,-0.29125 -0.463021,0.29125 -0.463021,0.29125 -0.07607,2.41938 -0.07608,2.41937 z m 9.86308,0 h -1.034222 l -0.878716,-0.87871 -0.878716,-0.87872 -0.182605,-0.97337 -0.182605,-0.97337 0.182605,-0.97336 0.182605,-0.97337 0.878716,-0.87872 0.878716,-0.87871 h 1.034222 1.034222 l 0.51359,0.38846 0.513591,0.38846 0.198437,0.008 0.198438,0.008 v -1.5875 -1.5875 h 1.190623 1.19063 v 4.89479 4.89479 h -1.19063 -1.190623 v -0.39687 -0.39688 l -0.198438,0.008 -0.198437,0.008 -0.513591,0.38846 -0.51359,0.38846 z m 0.870778,-2.11667 h 0.781551 l 0.432141,-0.65952 0.432141,-0.65954 -0.165659,-0.66003 -0.165659,-0.66004 -0.657258,-0.43066 -0.657257,-0.43065 -0.657258,0.43065 -0.657257,0.43066 -0.165659,0.66004 -0.16566,0.66003 0.432141,0.65954 0.432142,0.65952 z m 13.573033,2.11568 -1.53449,-10e-4 -0.80503,-0.49091 -0.80503,-0.49093 -0.7003,-0.83226 -0.7003,-0.83227 -0.1781,-1.1876 -0.17809,-1.1876 0.17702,-0.94359 0.17702,-0.9436 0.91395,-1.01163 0.91395,-1.01163 0.78822,-0.32649 0.78822,-0.32649 1.66757,0.10618 1.66758,0.10618 0.84864,0.60429 0.84864,0.60428 -0.005,0.31272 -0.005,0.31271 -0.81986,0.57276 -0.81986,0.57277 -0.82922,-0.50563 -0.82921,-0.50563 -0.61567,-0.001 -0.61566,-0.001 -0.7734,0.7734 -0.7734,0.7734 v 1.043 1.04301 l 0.52498,0.6674 0.52499,0.66741 0.64728,0.16246 0.64728,0.16245 0.61367,-0.26438 0.61368,-0.26438 0.4397,-0.3153 0.4397,-0.3153 0.93669,0.64183 0.93669,0.64183 -0.58264,0.62402 -0.58264,0.62401 -0.71447,0.37174 -0.71446,0.37174 -1.53449,-0.001 z m 7.04128,10e-4 h -0.96378 l -0.69714,-0.54837 -0.69714,-0.54837 v -0.99301 -0.99301 l 0.6834,-0.64143 0.68341,-0.64143 1.56555,0.009 1.56555,0.009 v -0.30761 -0.30761 l -0.38806,-0.32207 -0.38807,-0.32207 -1.37592,0.0912 -1.37593,0.0912 -0.19716,-0.72634 -0.19717,-0.72634 0.27744,-0.17147 0.27743,-0.17146 1.76716,-0.12644 1.76717,-0.12644 0.83475,0.43167 0.83476,0.43167 0.25644,0.47917 0.25645,0.47917 0.0525,2.75924 0.0525,2.75923 -1.22715,0.0806 -1.22715,0.0806 v -0.42637 -0.42638 l -0.58804,0.41188 -0.58803,0.41188 h -0.96378 z m 1.43809,-1.56798 0.56947,-0.20889 0.0854,-0.71618 0.0854,-0.71618 -1.00921,0.0833 -1.00922,0.0833 -0.0971,0.51168 -0.0971,0.51168 0.45149,0.33013 0.45148,0.33014 z m 5.66271,1.51633 -1.25677,0.0806 v -3.71866 -3.71866 h 1.19915 1.19915 l 0.20135,0.5443 0.20135,0.5443 0.49259,-0.5443 0.49259,-0.5443 h 0.48816 0.48816 v 1.32291 1.32292 h -0.4786 -0.4786 l -0.51359,0.37508 -0.51359,0.37507 -0.13229,1.94003 -0.13229,1.94003 z m 5.4901,0.0516 h -1.19062 v -3.70417 -3.70416 h 1.19062 1.19063 v 3.70416 3.70417 z m 3.77031,-0.0517 -1.25677,0.0806 v -4.90928 -4.90929 l 1.25677,-4.8e-4 1.25677,-4.7e-4 -0.0896,1.58798 -0.0897,1.58798 0.22194,-0.008 0.22194,-0.008 0.51359,-0.38846 0.51359,-0.38846 h 0.97208 0.97208 l 0.70243,0.55253 0.70243,0.55253 0.39158,0.75725 0.39159,0.75725 v 1.08461 1.08461 l -0.39159,0.75725 -0.39158,0.75725 -0.70243,0.55253 -0.70243,0.55253 h -0.97208 -0.97208 l -0.51359,-0.38847 -0.51359,-0.38847 -0.19844,-0.008 -0.19844,-0.008 0.0661,0.33073 0.0661,0.33073 z m 2.71198,-2.06502 h 0.78155 l 0.43214,-0.65952 0.43215,-0.65954 -0.16566,-0.66003 -0.16566,-0.66004 -0.65726,-0.43066 -0.65726,-0.43065 -0.65725,0.43065 -0.65726,0.43066 -0.16566,0.66004 -0.16566,0.66003 0.43214,0.65954 0.43214,0.65952 z m 5.95313,2.11667 h -1.19063 v -4.89479 -4.89479 h 1.19063 1.19062 v 1.5875 1.5875 l 0.19844,-0.008 0.19844,-0.008 0.51359,-0.38846 0.51359,-0.38846 h 0.98746 0.98747 l 0.80905,0.68077 0.80905,0.68078 0.2878,1.06881 0.28781,1.06882 -0.18388,1.08836 -0.18388,1.08835 -0.86622,0.86622 -0.86622,0.86622 h -1.03422 -1.03422 l -0.51359,-0.38846 -0.51359,-0.38846 -0.19844,-0.008 -0.19844,-0.008 v 0.39688 0.39687 z m 2.89506,-2.16997 0.80542,-0.079 0.34701,-0.7276 0.34701,-0.72761 -0.34517,-0.7013 -0.34517,-0.7013 -0.57841,-0.20996 -0.57842,-0.20996 -0.67835,0.53359 -0.67836,0.53359 v 0.68757 0.68757 l 0.4495,0.49669 0.4495,0.49669 z m 8.42615,2.07944 -1.53163,0.077 -0.39687,-0.15854 -0.39688,-0.15854 -0.73182,-0.68199 -0.73183,-0.682 -0.27056,-1.00479 -0.27056,-1.00479 0.27847,-1.03416 0.27847,-1.03417 0.93155,-0.81791 0.93156,-0.81792 1.24756,10e-4 1.24757,0.001 0.84301,0.51402 0.84301,0.51402 0.29905,0.5588 0.29906,0.55879 0.0486,1.10901 0.0486,1.10901 -2.31511,0.0764 -2.3151,0.0764 v 0.20136 0.20137 l 0.3175,0.3175 0.3175,0.3175 h 0.75823 0.75822 l 0.54401,-0.29115 0.54401,-0.29114 0.55573,0.55572 0.55572,0.55573 -0.57768,0.57769 -0.57769,0.57768 -1.53163,0.077 z m -0.4292,-4.1428 h 1.14653 v -0.34396 -0.34396 l -0.3175,-0.3175 -0.3175,-0.3175 h -0.67719 -0.67719 l -0.31265,0.50064 -0.31266,0.50065 0.16082,0.16081 0.16081,0.16082 z m 6.41501,4.23333 h -0.96378 l -0.69714,-0.54837 -0.69714,-0.54837 v -0.92423 -0.92423 l 0.26255,-0.49059 0.26255,-0.49058 0.95521,-0.31525 0.95522,-0.31525 1.03119,0.1649 1.03119,0.16489 v -0.39069 -0.39069 l -0.56881,-0.30442 -0.56882,-0.30443 -1.15903,0.15887 -1.15903,0.15886 -0.26636,-0.70059 -0.26636,-0.70058 0.24381,-0.24381 0.24382,-0.24382 1.57952,-0.14323 1.57953,-0.14322 0.96379,0.31808 0.9638,0.31808 0.3977,0.56779 0.39769,0.56779 v 2.85155 2.85154 h -1.19062 -1.19063 v -0.41188 -0.41187 l -0.58804,0.41187 -0.58803,0.41188 z m 1.46188,-1.68465 0.54568,-0.36037 0.0868,-0.58219 0.0868,-0.58219 -1.01064,0.0833 -1.01064,0.0834 -0.0971,0.51168 -0.0971,0.51168 0.47528,0.34753 0.47529,0.34754 z m 5.57276,1.68465 h -1.19062 v -3.70417 -3.70416 h 1.19062 1.19063 v 0.39687 0.39688 l 0.19844,-0.008 0.19843,-0.008 0.51359,-0.38846 0.5136,-0.38846 h 0.853834 0.85382 l 0.4283,0.16435 0.42831,0.16436 0.38709,0.74855 0.38709,0.74855 v 2.79126 2.79126 h -1.19063 -1.19062 v -2.13406 -2.13406 l -0.273894,-0.51177 -0.2739,-0.51177 h -0.50096 -0.50095 l -0.41578,0.41577 -0.41577,0.41578 v 2.23005 2.23006 h -1.19063 z m -36.77708,-7.9375 h -1.19062 v -0.92604 -0.92604 h 1.19062 1.19063 v 0.92604 0.92604 z m -43.065695,-4.7625 h -1.011488 l -0.649432,-0.64943 -0.649432,-0.64943 v -0.93807 -0.93807 l 0.522437,-0.52244 0.522437,-0.52243 0.684169,-0.17172 0.68417,-0.17171 1.042352,0.13981 1.042352,0.1398 v -0.3393 -0.3393 l -0.38794,-0.32196 -0.38794,-0.32196 -1.378125,0.0911 -1.378126,0.0911 -0.199129,-0.74144 -0.199129,-0.74145 0.708424,-0.27335 0.708423,-0.27335 1.817836,0.0992 1.817836,0.0992 0.62956,0.73191 0.62956,0.73191 v 2.76337 2.76337 h -1.190665 -1.190625 v -0.27959 -0.27958 l -0.588038,0.41187 -0.588038,0.41188 z m 0.988121,-1.5875 h 0.564444 l 0.3175,-0.3175 0.3175,-0.3175 v -0.45842 -0.45842 l -0.519173,-0.16478 -0.519172,-0.16478 -0.539161,0.28855 -0.539161,0.28855 v 0.47576 0.47576 l 0.176389,0.17639 0.176389,0.17639 z m 7.380318,1.58389 -0.830584,0.004 -0.621485,-0.50325 -0.621486,-0.50325 -0.0973,-2.14258 -0.0973,-2.14258 h -0.368899 -0.36886 v -1.05834 -1.05833 h 0.396875 0.396875 v -0.92604 -0.92604 h 1.173862 1.173861 l 0.08291,0.85989 0.08291,0.8599 0.859895,0.0829 0.859896,0.0829 v 1.04157 1.04157 h -0.926041 -0.926042 l 0.0041,1.25677 0.0041,1.25677 0.232388,0.36695 0.232389,0.36695 0.689601,-0.13182 0.689603,-0.13183 v 0.99079 0.99078 l -0.595312,0.15954 -0.595313,0.15954 -0.830584,0.004 z m 45.765646,0.004 h -1.02248 l -0.90147,-0.48346 -0.90147,-0.48347 -0.48346,-0.90147 -0.48347,-0.90147 v -0.87252 -0.87252 l 0.36482,-0.87312 0.36481,-0.87312 0.7292,-0.57359 0.7292,-0.57359 h 1.42884 1.42883 l 0.6629,0.43434 0.66289,0.43435 0.3026,0.55784 0.3026,0.55784 0.17388,1.12448 0.17387,1.12448 h -2.47159 -2.4716 v 0.22358 0.22357 l 0.48386,0.43789 0.48385,0.43788 h 0.56203 0.56203 l 0.68512,-0.31216 0.68513,-0.31217 0.55006,0.55006 0.55006,0.55006 -0.16013,0.2591 -0.16014,0.2591 -0.90415,0.42904 -0.90415,0.42905 z m -0.26457,-4.23333 h 1.14653 l 0.16708,-0.16708 0.16708,-0.16708 -0.24793,-0.46325 -0.24792,-0.46325 -0.44151,-0.16942 -0.4415,-0.16943 -0.62418,0.40898 -0.62418,0.40898 v 0.39077 0.39078 z m 17.45359,4.22731 -1.00533,-0.006 -0.89389,-0.44036 -0.8939,-0.44037 -0.49418,-0.81038 -0.49417,-0.81038 v -1.19062 -1.19063 l 0.51648,-0.84705 0.51647,-0.84705 0.79231,-0.40972 0.79231,-0.40972 h 1.33189 1.33188 l 0.81694,0.72993 0.81693,0.72994 -0.81768,0.60454 -0.81768,0.60454 -0.58312,-0.40844 -0.58312,-0.40843 h -0.338 -0.33801 l -0.52916,0.52917 -0.52917,0.52917 v 0.75274 0.75274 l 0.51989,0.4705 0.5199,0.4705 0.60458,-0.13089 0.60459,-0.13088 0.41485,-0.17614 0.41485,-0.17614 0.71959,0.56603 0.71958,0.56603 -0.32141,0.38728 -0.32142,0.38728 -0.73374,0.37943 -0.73373,0.37943 z m 5.79037,0.006 h -0.77121 l -0.69714,-0.54837 -0.69714,-0.54837 v -1.17531 -1.17531 l 0.8599,-0.54001 0.85989,-0.54 1.38907,0.10264 1.38906,0.10264 v -0.3201 -0.3201 l -0.39824,-0.33051 -0.39824,-0.33051 -1.34212,0.12896 -1.34211,0.12896 -0.25385,-0.66768 -0.25385,-0.66768 0.27927,-0.27927 0.27927,-0.27927 1.80702,-0.10211 1.80702,-0.1021 0.84532,0.43713 0.84533,0.43713 0.25321,0.66601 0.25322,0.66601 v 2.49632 2.49632 h -1.19063 -1.19062 v -0.27138 -0.27138 l -0.78061,0.40367 -0.78061,0.40367 z m 1.13299,-1.5875 h 0.56444 l 0.3175,-0.3175 0.3175,-0.3175 v -0.45842 -0.45842 l -0.51917,-0.16478 -0.51917,-0.16478 -0.53918,0.28855 -0.53916,0.28855 v 0.47576 0.47576 l 0.17639,0.17639 0.17639,0.17639 z m -84.657858,1.32292 H 6.7163832 v -4.63021 -4.63021 h 1.322916 1.322917 v 3.57188 3.57187 h 2.2489578 2.248959 v 1.05834 1.05833 z m 19.049998,0 h -1.190623 v -3.57188 -3.57187 h 1.190623 1.19063 v 3.57187 3.57188 z m 3.82616,0 h -1.31262 v -3.57188 -3.57187 h 1.32292 1.32292 v 0.41188 0.41187 l 0.58804,-0.41187 0.58803,-0.41188 h 1.11255 1.11255 l 0.54837,0.69714 0.54837,0.69714 v 2.87473 2.87474 h -1.18032 -1.18032 l -0.0764,-2.28715 -0.0765,-2.28714 -0.46303,-0.29119 -0.46302,-0.29119 -0.46302,0.29119 -0.46302,0.29119 -0.0764,2.28714 -0.0764,2.28715 z m 11.59782,0 h -1.31287 l 0.0882,-0.24237 0.0882,-0.24237 1.85208,-4.39897 1.85209,-4.39898 1.30043,0.0773 1.30044,0.0773 0.7856,1.85209 0.7856,1.85208 1.13874,2.71198 1.13874,2.71198 h -1.38083 -1.38083 l -0.29961,-0.79375 -0.29961,-0.79375 h -1.84296 -1.84297 l -0.32878,0.79375 -0.32878,0.79375 z m 3.90622,-3.43958 h 0.91043 l -0.0196,-0.33073 -0.0196,-0.33073 -0.47955,-1.05834 -0.47956,-1.05833 -0.52554,1.19063 -0.52554,1.19062 0.11429,0.19844 0.11429,0.19844 h 0.91043 z m 6.99585,3.43958 h -1.32292 v -3.57188 -3.57187 h 1.32292 1.32292 v 0.41188 0.41187 l 0.58804,-0.41187 0.58803,-0.41188 h 1.04478 1.04477 l 0.47708,0.43175 0.47707,0.43174 0.65893,-0.43174 0.65893,-0.43175 h 1.15381 1.15381 l 0.63784,0.67894 0.63782,0.67894 0.099,2.89293 0.099,2.89294 h -1.34188 -1.34189 l -0.0764,-2.28715 -0.0764,-2.28714 -0.46302,-0.29119 -0.46302,-0.29119 -0.46302,0.29119 -0.46303,0.29119 -0.0764,2.28714 -0.0764,2.28715 h -1.18032 -1.18033 v -2.00177 -2.00177 l -0.27389,-0.51177 -0.27389,-0.51177 h -0.62384 -0.62385 l -0.16059,0.41851 -0.1606,0.41851 v 2.09503 2.09503 z m 20.90208,0 h -1.32291 v -3.58637 -3.58638 l 1.25677,0.0806 1.25677,0.0806 -0.0367,0.46302 -0.0368,0.46302 h 0.19418 0.19418 l 0.47889,-0.52916 0.47889,-0.52917 h 0.48816 0.48816 v 1.32292 1.32291 h -0.64646 -0.64645 l -0.41188,0.58804 -0.41188,0.58804 v 1.66092 1.66092 z m 5.42396,0 h -1.19062 v -3.57188 -3.57187 h 1.19062 1.19063 v 3.57187 3.57188 z m 19.050004,0 h -1.190624 v -3.57188 -3.57187 h 1.190624 1.19063 v 0.39687 0.39688 h 0.23218 0.23219 l 0.32938,-0.39688 0.32937,-0.39687 h 1.12892 1.12892 l 0.62462,0.50524 0.62462,0.50524 0.0889,3.06663 0.0889,3.06664 h -1.2134 -1.21339 v -2.00177 -2.00177 l -0.2739,-0.51177 -0.27388,-0.51177 h -0.64285 -0.64284 l -0.27389,0.51177 -0.27388,0.51177 v 2.00177 2.00177 z m -71.553034,-7.9375 h -1.339683 v -0.94054 -0.94054 l 1.256773,0.0806 1.25677,0.0806 0.0829,0.85989 0.0829,0.8599 z m 52.50303,0 h -1.19062 v -0.92604 -0.92604 h 1.19062 1.19063 v 0.92604 0.92604 z M 21.843509,11.617934 H 6.0144202 l -0.0633,-3.3072999 -0.0633,-3.30729 H 21.780205 37.672586 v 3.30729 3.3072999 z M 10.2529,9.7113441 l 0.523041,-0.0778 0.109198,-0.33157 0.109197,-0.33156 -0.61764,0.067 -0.6176398,0.067 v -0.66145 -0.66146 h 0.5714048 0.571406 l 0.187419,-0.18556 0.187419,-0.18556 -0.70334,-0.17653 -0.7033398,-0.17653 -0.518505,0.46924 -0.518506,0.46924 v 0.40118 0.40118 l 0.448423,0.4955 0.448422,0.49551 z m 2.54056,0.0545 h 0.802054 v -0.42773 -0.42774 l -0.528903,0.13832 -0.528903,0.13831 -0.14817,-0.23975 -0.14817,-0.23974 h 0.677073 0.677073 v -0.26458 -0.26459 h -0.529166 -0.529167 v -0.26458 -0.26458 h 0.529167 0.529166 v -0.28135 -0.28135 l -0.859896,0.0829 -0.859895,0.0829 -0.08479,0.88508 -0.08479,0.88509 0.14263,0.37168 0.142629,0.37169 z m 2.076399,-0.63607 0.08372,-0.68684 h 0.142784 0.142784 l 0.535147,0.68032 0.535146,0.68033 0.248587,-0.24859 0.248587,-0.24858 -0.0842,-1.02706 -0.0842,-1.02705 H 16.37363 16.109047 l -0.08593,0.60585 -0.08593,0.60584 -0.530571,-0.67451 -0.530571,-0.67451 -0.243397,0.15042 -0.243397,0.15043 v 0.99862 0.99862 l 0.198438,0.20178 0.198437,0.20177 z m 3.525059,0.48097 0.22768,-0.14071 v -0.91043 -0.91042 h 0.41249 0.412489 l -0.163521,-0.26459 -0.163521,-0.26458 h -0.910427 -0.910427 v 0.26458 0.26459 h 0.264583 0.264584 v 0.88194 0.88194 l 0.169195,0.1692 0.169196,0.1692 z m 2.410492,0.10572 0.859896,-0.0829 -0.132292,-0.26458 -0.132291,-0.26459 -0.312055,-0.003 -0.312055,-0.003 -0.195063,-0.19507 -0.195063,-0.19506 h 0.573263 0.573264 v -0.26458 -0.26459 h -0.529166 -0.529167 v -0.26458 -0.26458 h 0.661458 0.661459 v -0.26459 -0.26458 h -0.926042 -0.926042 v 1.33968 1.33968 z m 2.050521,0.0494 h 0.264583 v -0.39687 -0.39688 h 0.177604 0.177604 l 0.511673,0.46302 0.511673,0.46302 -0.06848,-0.52916 -0.06848,-0.52917 0.202555,-0.46639 0.202555,-0.46639 -0.32658,-0.39351 -0.326581,-0.3935 h -0.761353 -0.761353 v 1.32292 1.32291 z m 0.661458,-1.32291 h -0.440972 l 0.09481,-0.28443 0.09481,-0.28443 h 0.251354 0.251354 l 0.09481,0.28443 0.09481,0.28443 z m 3.570007,1.19178 0.266452,-0.16468 v -0.38126 -0.38126 h 0.529166 0.529167 v -0.26458 -0.26459 h -0.529167 -0.529166 v -0.26458 -0.26458 h 0.714375 0.714373 l -0.28527,-0.28527 -0.285264,-0.28527 -0.759836,0.0868 -0.759837,0.0868 -0.08479,0.88508 -0.08479,0.88509 0.149066,0.38845 0.149064,0.38846 z m 3.19426,0.13113 h 0.28198 l 0.51177,-0.27389 0.51177,-0.27389 v -0.77513 -0.77514 l -0.51177,-0.27389 -0.51177,-0.27389 h -0.28198 -0.28198 l -0.52916,0.52917 -0.52917,0.52916 v 0.26459 0.26458 l 0.52917,0.52917 0.52916,0.52916 z m 0.50233,-0.95776 -0.38743,0.36515 -0.33073,-0.12262 -0.33073,-0.12262 v -0.4915 -0.4915 l 0.28997,-0.17921 0.28998,-0.17922 0.42818,0.42818 0.42818,0.42819 z m 2.07936,0.58462 0.0855,-0.42061 h 0.21279 0.21279 l 0.32695,0.39396 0.32696,0.39397 0.25766,-0.15925 0.25766,-0.15924 -0.26867,-0.26867 -0.26868,-0.26868 0.29585,-0.47372 0.29585,-0.47373 -0.34721,-0.41836 -0.34721,-0.41836 h -0.76135 -0.76136 v 1.14653 1.14652 l 0.19844,0.20013 0.19844,0.20012 z m 0.62002,-0.94977 h -0.22049 l -0.1692,-0.1692 -0.16919,-0.1692 0.14071,-0.22768 0.14071,-0.22767 h 0.24897 0.24897 v 0.39687 0.39688 z"
       id="path602" /></g></svg>
