<?xml version="1.0" encoding="UTF-8" standalone="no"?>
<!-- Created with Inkscape (http://www.inkscape.org/) -->

<svg
   width="50.869339mm"
   height="50.889038mm"
   viewBox="0 0 50.869339 50.889038"
   version="1.1"
   id="svg5"
   xml:space="preserve"
   xmlns:inkscape="http://www.inkscape.org/namespaces/inkscape"
   xmlns:sodipodi="http://sodipodi.sourceforge.net/DTD/sodipodi-0.dtd"
   xmlns="http://www.w3.org/2000/svg"
   xmlns:svg="http://www.w3.org/2000/svg"><sodipodi:namedview
     id="namedview7"
     pagecolor="#ffffff"
     bordercolor="#000000"
     borderopacity="0.25"
     inkscape:showpageshadow="2"
     inkscape:pageopacity="0.0"
     inkscape:pagecheckerboard="0"
     inkscape:deskcolor="#d1d1d1"
     inkscape:document-units="mm"
     showgrid="false" /><defs
     id="defs2" /><g
     inkscape:label="Layer 1"
     inkscape:groupmode="layer"
     id="layer1"
     transform="translate(-1.5627731,-2.3780121)"><path
       style="fill:#ffffff;stroke-width:0.264583"
       d="m 3.1258131,53.165001 -0.99219,0.0821 v -3.47152 -3.47153 l 0.99219,0.0821 0.99219,0.0821 v 1.2572 1.2572 l 1.12448,-5.3e-4 1.12448,-3.3e-4 v -1.32292 -1.32292 h 1.06623 1.06624 l -0.074,3.37344 -0.074,3.37344 h -0.92604 -0.92604 l -0.0806,-1.25677 -0.0806,-1.25677 -1.10998,-5.3e-4 -1.10999,-5.3e-4 v 1.2572 1.2572 l -0.99218,0.0821 z m 9.3265599,0.0502 H 9.8065431 v -3.43958 -3.43959 h 2.6458299 2.64584 v 0.79375 0.79375 h -1.7198 -1.71979 v 0.52917 0.52917 h 1.19063 1.19062 v 0.66146 0.66145 h -1.19062 -1.19063 v 0.52917 0.52917 h 1.71979 1.7198 v 0.92604 0.92604 z m 4.88529,-0.0536 -0.80326,0.0787 -0.18893,-0.18893 -0.18893,-0.18893 v -3.26319 -3.2632 h 2.38125 2.38125 l 0.52917,0.52917 0.52916,0.52917 v 0.93434 0.93435 l -0.4083,0.15668 -0.40829,0.15668 0.378,0.43033 0.378,0.43033 0.12025,0.92604 0.12025,0.92604 0.10848,0.39687 0.10849,0.39688 -0.74361,0.0853 -0.7436,0.0853 -0.38088,-0.3161 -0.38087,-0.3161 v -0.99763 -0.99763 l -0.41852,-0.1606 -0.41851,-0.1606 h -0.4937 -0.4937 l -0.08,1.38907 -0.08,1.38906 z m 1.79328,-3.96452 0.85772,-0.0829 0.0943,-0.49746 0.0944,-0.49747 -0.35676,-0.22609 -0.35676,-0.22608 -0.59531,-0.004 -0.59532,-0.004 v 0.81052 0.81051 z m 5.09539,4.01813 h -0.92604 v -3.43958 -3.43959 h 0.92604 0.92604 v 3.43959 3.43958 z m 5.09323,-0.0502 -0.99219,0.0821 v -2.6618 -2.66181 h -1.05833 -1.05833 v -0.80214 -0.80215 l 3.10885,0.0745 3.10885,0.0746 v 0.66145 0.66146 l -1.05833,0.13229 -1.05833,0.1323 v 2.51354 2.51354 z m 3.79969,0.0502 h -0.7919 l -0.10637,-0.19844 -0.10638,-0.19843 1.21524,-3.25072 1.21524,-3.25072 1.04919,0.0757 1.04919,0.0757 1.11594,2.91041 1.11594,2.91042 0.0177,0.46302 0.0177,0.46302 h -0.89395 -0.89394 l -0.32878,-0.79375 -0.32878,-0.79375 h -1.00035 -1.00035 l -0.27671,0.79375 -0.2767,0.79375 h -0.7919 z m 2.35187,-2.91042 h 0.52917 l -0.004,-0.33072 -0.004,-0.33073 -0.23209,-0.36648 -0.2321,-0.36647 -0.29302,0.54752 -0.29302,0.54751 v 0.14969 0.14968 h 0.52917 z m 6.70048,2.91042 h -1.13588 l -0.86407,-0.77204 -0.86407,-0.77205 v -1.8687 -1.8687 l 0.86057,-0.86057 0.86058,-0.86058 h 1.58614 1.58615 l 0.83019,0.8302 0.8302,0.83019 -0.7974,0.41235 -0.79739,0.41235 -0.47001,-0.51935 -0.47,-0.51935 h -0.60155 -0.60156 l -0.41577,0.41578 -0.41577,0.41577 v 1.29471 1.29471 l 0.55381,0.29639 0.55381,0.29639 0.63681,-0.15983 0.63682,-0.15983 v -0.39184 -0.39183 h -0.52917 -0.52917 v -0.52917 -0.52917 h 1.5875 1.5875 v 1.70418 1.70418 l -0.28125,0.17382 -0.28126,0.17383 -0.44635,-0.4026 -0.44635,-0.4026 -0.51359,0.37668 -0.51359,0.37668 z m 7.49883,0 h -2.46945 l -0.17638,-0.17639 -0.17639,-0.17639 v -3.26319 -3.2632 h 2.61498 2.61499 l 0.12526,0.65525 0.12526,0.65524 -0.13851,0.13851 -0.13851,0.1385 h -1.6757 -1.67569 v 0.52917 0.52917 h 1.34132 1.34132 l -0.0846,0.59531 -0.0845,0.59531 -1.25678,0.0807 -1.25677,0.0806 v 0.51467 0.51467 h 1.7198 1.71979 v 0.92604 0.92604 z m -45.4201399,-9.46064 -0.66146,0.16668 -0.82147,-0.35118 -0.82147,-0.35117 -0.16169,-0.618309 -0.1617,-0.61831 0.39395,-0.60124 0.39395,-0.60125 h 0.24328 0.24327 l 0.0814,-1.1225 0.0814,-1.1225 0.7276,-0.34715 0.7276,-0.34714 0.72761,0.34701 0.7276,0.347 0.081,0.83264 0.081,0.83264 -0.57005,0.39929 -0.57006,0.39928 0.25865,0.46219 0.25866,0.46219 0.30584,-0.57148 0.30585,-0.57147 h 0.51985 0.51986 v 0.14543 0.14543 l -0.40367,0.78061 -0.40367,0.78061 h 0.54427 0.54426 l 0.15668,0.408289 0.15667,0.40829 -0.16125,0.16125 -0.16125,0.16125 -0.86362,-0.0608 -0.86363,-0.0608 -0.39687,-0.0307 -0.39688,-0.0307 z m -0.20796,-1.122699 h 0.55456 l -0.48455,-0.53541 -0.48455,-0.53542 -0.24778,0.24778 -0.24778,0.24778 0.17777,0.28764 0.17777,0.28763 z m 0.6396,-2.67468 0.38454,-0.31914 -0.2758,-0.2758 -0.2758,-0.27579 -0.29444,0.29444 -0.29445,0.29445 0.18571,0.30049 0.18571,0.30048 z m 8.2996099,3.804569 -0.66146,0.13451 -0.78742,-0.22844 -0.78742,-0.22843 -0.46346,-0.6022 -0.4634699,-0.602199 -0.006,-1.11203 -0.006,-1.11203 0.3039199,-0.66705 0.30393,-0.66705 1.11077,-0.42421 1.11078,-0.42421 0.97027,0.40541 0.97026,0.4054 0.16371,0.42661 0.1637,0.4266 -0.27343,0.27343 -0.27343,0.27343 -0.96405,-0.34861 -0.96406,-0.3486 -0.42924,0.27076 -0.42925,0.27076 v 0.93117 0.93117 l 0.19201,0.31067 0.192,0.31067 h 0.72522 0.72522 l 0.29971,-0.29971 0.29972,-0.29972 0.41466,0.15912 0.41466,0.15912 v 0.39908 0.399079 l -0.59531,0.3715 -0.59532,0.3715 z m 5.68854,-7.9e-4 -0.79375,0.12513 -0.84804,-0.23469 -0.84804,-0.23468 -0.40873,-0.58364 -0.40873,-0.583539 v -2.0578 -2.05779 h 0.92604 0.92604 v 2.11666 2.11667 h 0.76545 0.76544 l 0.1606,-0.41851 0.1606,-0.41852 v -1.69815 -1.69815 h 0.79375 0.79375 v 2.10191 2.10191 l -0.59532,0.648979 -0.59531,0.64898 -0.79375,0.12513 z m 15.34583,0 -0.79375,0.12513 -0.85852,-0.2374 -0.85852,-0.2374 -0.4104,-0.62636 -0.4104,-0.626349 0.0783,-1.94612 0.0783,-1.94622 0.85989,-0.0829 0.8599,-0.0829 v 2.15019 2.1502 l 0.85989,-0.0829 0.8599,-0.0829 0.0773,-2.05052 0.0773,-2.05052 h 0.78262 0.78262 v 2.10191 2.10191 l -0.59531,0.648979 -0.59532,0.64898 -0.79375,0.12513 z m -10.45104,-0.0708 h -2.11666 v -2.778129 -2.77812 h 0.79375 0.79375 v 2.11666 2.11667 h 1.32291 1.32292 v 0.661459 0.66146 z m 4.23334,0 h -0.79375 v -2.116669 -2.11667 h -0.94445 -0.94444 l 0.0846,-0.59531 0.0845,-0.59531 h 2.51354 2.51354 v 0.52917 0.52916 l -0.85989,0.0829 -0.8599,0.0829 v 2.09991 2.099899 z m 9.78958,0 h -0.79375 v -2.778129 -2.77812 h 1.57027 1.57028 l 0.67129,0.25522 0.6713,0.25523 0.17838,0.71075 0.17839,0.71075 -0.32501,0.52042 -0.32501,0.52043 0.2863,0.28631 0.28631,0.2863 v 0.91723 0.917219 l 0.19786,-0.19787 0.19787,-0.19786 0.93214,-2.425919 0.93213,-2.42592 0.80877,-0.0795 0.80877,-0.0795 0.97165,2.61947 0.97164,2.619459 v 0.17202 0.17202 h -0.81852 -0.81852 l -0.13838,-0.52916 -0.13838,-0.529169 h -0.91995 -0.91995 l -0.14146,0.540909 -0.14145,0.54092 -1.61971,-0.0779 -1.61972,-0.0779 -0.13229,-0.926049 -0.13229,-0.92604 -0.72761,-0.0837 -0.7276,-0.0837 v 1.07591 1.075899 z m 7.03977,-2.116669 h 0.42518 l -0.1606,-0.41852 -0.1606,-0.41851 -0.004,-0.30909 -0.004,-0.30909 -0.25648,0.39688 -0.25648,0.39687 -0.004,0.33073 -0.004,0.33073 z m -5.51842,-1.10691 0.72761,-0.0837 v -0.39687 -0.39687 l -0.72761,-0.0837 -0.7276,-0.0837 v 0.56431 0.56431 z m 11.04636,3.223579 h -2.24896 v -2.778129 -2.77812 h 0.79375 0.79375 v 2.11666 2.11667 h 1.45521 1.45521 v 0.661459 0.66146 z m -38.1,-7.800259 -1.05834,0.15196 -0.90723,-0.47533 -0.9072299,-0.47533 -0.54798,-0.74635 -0.54797,-0.74634 -0.0727,-6.5297 -0.0727,-6.52969 0.46955,-0.92077 0.46955,-0.92077 0.89902,-0.60059 0.8990299,-0.60058 h 0.90005 0.90005 l 0.79231,0.40972 0.79231,0.40972 0.51648,0.84705 0.51648,0.84705 -0.003,6.74687 -0.003,6.74688 -0.32683,0.63595 -0.32683,0.63595 -0.66146,0.48117 -0.66146,0.48117 -1.05833,0.15196 z m -0.28112,-2.86576 0.28112,-0.0937 v -6.19203 -6.19204 l -0.46302,-0.0892 -0.46302,-0.0892 v 6.19301 6.19301 l 0.1819,0.1819 0.1819,0.18191 z m -8.2737399,2.72852 h -1.27882 l -0.17639,-0.17639 -0.17639,-0.17639 v -8.81945 -8.81944 h 2.92424 2.92425 l -0.08,1.38906 -0.08,1.38907 -1.38907,0.08 -1.38906,0.08 v 2.23513 2.23513 h 1.05833 1.05834 v 1.32291 1.32292 h -1.05834 -1.05833 v 3.96875 3.96875 z m 15.4257199,0 h -2.78643 l -0.12774,-0.33288 -0.12773,-0.33288 0.0699,-8.59681 0.0699,-8.59681 h 1.4552 1.45521 v 7.47457 7.47456 l 1.38907,-9e-5 1.38906,-8e-5 v 1.45521 1.45521 z m 4.70466,-0.0523 -1.38906,0.08 v -9.00966 -9.00966 h 1.44654 1.44654 l 0.0748,2.97656 0.0748,2.97656 0.48374,-2.51354 0.48374,-2.51354 0.1294,-0.46302 0.12941,-0.46302 h 1.28947 1.28947 l 0.1166,0.19843 0.1166,0.19844 -0.33082,1.32292 -0.33082,1.32291 -0.56276,2.38125 -0.56276,2.38125 0.22919,0.92605 0.22918,0.92604 0.31472,1.85208 0.31473,1.85208 0.23642,1.19063 0.23642,1.19062 0.16781,1.12448 0.16782,1.12448 h -1.47343 -1.47342 l -0.12155,-0.59531 -0.12154,-0.59531 -0.32711,-2.57705 -0.3271,-2.57705 -0.1517,0.15126 -0.15171,0.15126 -0.13229,2.95496 -0.13229,2.95495 z m 9.37066,0.0523 h -2.73403 l -0.17639,-0.17639 -0.17639,-0.17639 v -8.81945 -8.81944 h 1.5875 1.5875 v 7.54063 7.54062 h 1.32292 1.32292 v 1.45521 1.45521 z m 4.7184,0 h -1.45521 v -8.99584 -8.99583 h 1.45521 1.45521 v 8.99583 8.99584 z m 3.87348,0 h -1.27174 l -0.17639,-0.17639 -0.17639,-0.17639 v -8.81945 -8.81944 h 2.91042 2.91041 v 1.45521 1.45521 h -1.45521 -1.4552 v 2.23374 2.23375 l 1.12447,0.0814 1.12448,0.0814 0.08,1.24088 0.08,1.24088 -1.13832,0.082 -1.13833,0.082 -0.0732,3.9026 -0.0732,3.90261 z m 7.88685,-0.0577 -2.79176,0.0746 -0.1848,-0.18481 -0.18481,-0.18481 v -8.81945 -8.81944 h 3.05653 3.05654 l -0.08,1.38906 -0.08,1.38907 -1.52135,0.0794 -1.52136,0.0793 v 2.23575 2.23576 h 1.05833 1.05834 v 1.32291 1.32292 h -1.05834 -1.05833 v 2.51354 2.51354 h 1.60133 1.60133 l -0.08,1.38906 -0.08,1.38907 z M 4.5444331,15.644362 h -1.23473 l -0.55158,-0.38633 -0.55157,-0.38634 -0.32189,-0.77712 -0.32189,-0.77711 0.40524,-0.78366 0.40524,-0.78365 0.81122,-0.33602 0.81122,-0.33602 1.08975,0.14617 1.08974,0.14616 0.37375,0.37375 0.37375,0.37376 -0.41799,0.3469 -0.41799,0.3469 -0.66607,-0.30349 -0.66607,-0.30348 h -0.25214 -0.25213 l -0.53523,0.53523 -0.53523,0.53523 0.27036,0.50519 0.27037,0.50518 0.4945,0.15695 0.4945,0.15695 0.72859,-0.27701 0.72859,-0.27701 0.39186,0.32521 0.39185,0.32521 -0.58564,0.47423 -0.58564,0.47422 z m 5.11826,-0.0557 -1.86364,0.0766 -0.18688,-0.18687 -0.18688,-0.18688 v -1.94028 -1.94028 h 2.11667 2.1166599 v 0.52917 0.52917 h -1.45521 -1.4551999 v 0.26458 0.26458 h 1.08038 1.0803799 l -0.10865,0.33073 -0.10864,0.33073 -0.9717399,0.0821 -0.97173,0.0821 v 0.24861 0.24861 h 1.4736099 1.47361 l -0.0845,0.59532 -0.0846,0.59531 z m 3.5705299,-0.004 -0.40978,0.0775 -0.18553,-0.18553 -0.18554,-0.18554 v -1.94027 -1.94028 h 0.69166 0.69165 l 1.01729,1.12448 1.01728,1.12448 0.0109,-1.12448 0.0109,-1.12448 h 0.67259 0.67259 l -0.0773,2.04765 -0.0773,2.04765 -0.4505,0.086 -0.4505,0.086 -1.1861,-1.09331 -1.1861,-1.09331 -0.0832,1.00798 -0.0832,1.00797 z m 7.01347,0.004 -0.54005,0.0773 -0.18755,-0.18755 -0.18755,-0.18754 v -1.41112 -1.41111 h -0.79375 -0.79375 v -0.52916 -0.52917 h 2.51354 2.51354 v 0.52917 0.52916 h -0.91284 -0.91283 l -0.0794,1.52136 -0.0794,1.52135 z m 5.291,-6.6e-4 -1.86365,0.0766 -0.18687,-0.18687 -0.18688,-0.18689 v -1.94028 -1.94028 h 2.11667 2.11666 v 0.52917 0.52916 h -1.45521 -1.4552 v 0.26459 0.26458 h 1.05833 1.05833 v 0.39688 0.39687 h -1.05833 -1.05833 v 0.26458 0.26459 h 1.47361 1.47361 l -0.0846,0.59531 -0.0845,0.59531 -1.86365,0.0766 z m 3.62753,0.0557 h -0.48507 l -0.17639,-0.17641 -0.17639,-0.17639 v -1.94028 -1.94028 h 1.93146 1.93146 l 0.3175,0.3175 0.3175,0.3175 v 0.60854 0.60854 h -0.29698 -0.29698 l 0.27709,0.33388 0.27709,0.33387 0.086,0.7812 0.086,0.78121 -0.47573,0.0974 -0.47574,0.0974 -0.38416,-0.31883 -0.38416,-0.31883 v -0.49677 -0.49677 h -0.79375 -0.79375 v 0.79375 0.79375 z m 1.42673,-2.64583 h 0.94165 l -0.16352,-0.26458 -0.16352,-0.26459 h -0.77814 -0.77813 v 0.26459 0.26458 z m 7.38183,2.59085 -0.54006,0.0773 -0.18755,-0.18755 -0.18755,-0.18755 v -1.94028 -1.94028 h 2.11667 2.11667 v 0.52917 0.52917 h -1.32292 -1.32292 v 0.26458 0.26458 h 0.92604 0.92605 v 0.52917 0.52917 h -0.90847 -0.90847 l -0.0837,0.7276 -0.0837,0.72761 z m 6.27444,0.0469 -0.97189,-0.008 -0.52917,-0.28943 -0.52916,-0.28944 -0.33073,-0.41455 -0.33073,-0.41455 v -0.85195 -0.85195 l 0.81405,-0.68498 0.81405,-0.68498 h 1.01773 1.01774 l 0.81404,0.68498 0.81406,0.68498 v 0.879 0.879 l -0.81406,0.68498 -0.81404,0.68498 z m -0.0458,-1.05029 h 0.46437 l 0.31729,-0.38231 0.31729,-0.38231 -0.0865,-0.58286 -0.0865,-0.58285 -0.46302,-0.29025 -0.46302,-0.29025 -0.46302,0.29025 -0.46302,0.29025 -0.0865,0.58285 -0.0865,0.58286 0.31729,0.38231 0.31729,0.38231 z m 4.09015,1.00335 -0.54005,0.0773 -0.18755,-0.18755 -0.18755,-0.18755 v -1.94028 -1.94028 h 2.12234 2.12233 l 0.30465,0.66864 0.30466,0.66863 -0.27914,0.27914 -0.27914,0.27914 0.27668,0.733 0.27667,0.733 -0.17438,0.45445 -0.17439,0.45445 -0.5965,-0.0847 -0.59649,-0.0847 -0.0837,-0.7276 -0.0837,-0.72761 h -0.75861 -0.7586 l -0.0837,0.72761 -0.0837,0.7276 z m 1.4661,-2.59085 h 0.79375 v -0.26458 -0.26459 h -0.79375 -0.79375 v 0.26459 0.26458 z M 3.8839231,9.2830721 l -0.55963,-0.0106 -0.6944,-0.37734 -0.69441,-0.37734 -0.15273,-0.58402 -0.15272,-0.58403 0.13514,-0.21867 0.13514,-0.21866 h 0.61499 0.61498 l 0.1444,0.55218 0.1444,0.55217 0.47873,-0.0922 0.47874,-0.0922 0.0856,-0.44468 0.0856,-0.44468 -0.82428,-0.42624 -0.82427,-0.42625 -0.5151,-0.5151 -0.51509,-0.51509 v -0.79375 -0.79375 l 0.52917,-0.52917 0.52916,-0.52917 h 0.92604 0.92605 l 0.52916,0.52917 0.52917,0.52917 v 0.66145 0.66146 h -0.6306 -0.6306 l -0.13838,-0.52916 -0.13838,-0.52917 h -0.42165 -0.42164 l 0.002,0.46302 0.002,0.46302 1.06852,0.61025 1.06853,0.61025 0.25909,0.68147 0.25909,0.68147 -0.15467,0.48731 -0.15466,0.48732 -0.68151,0.53607 -0.68149,0.53607 z m 23.6039499,-0.007 -0.61566,-0.0179 -0.56513,-0.27364 -0.56513,-0.27364 -0.29477,-0.64694 -0.29476,-0.64695 v -0.25213 -0.25214 h 0.76289 0.76289 l 0.13838,0.52917 0.13838,0.52917 h 0.40603 0.40603 l 0.14877,-0.24071 0.14876,-0.24071 -0.15759,-0.41068 -0.15759,-0.41067 -0.47523,-0.15084 -0.47522,-0.15083 -0.69096,-0.64035 -0.69096,-0.64036 v -0.80638 -0.80639 l 0.52917,-0.52917 0.52916,-0.52916 h 0.92604 0.92605 l 0.52916,0.52916 0.52917,0.52917 v 0.66146 0.66146 h -0.6306 -0.6306 l -0.13838,-0.52917 -0.13838,-0.52917 h -0.40603 -0.40603 l -0.13045,0.21108 -0.13045,0.21107 0.18098,0.26591 0.18098,0.26592 0.99554,0.60499 0.99553,0.605 0.26124,0.48812 0.26123,0.48813 v 0.43462 0.43462 l -0.7734,0.7734 -0.77339,0.77339 z m 4.8083,0.0179 h -0.72239 l -0.69714,-0.54837 -0.69714,-0.54837 v -2.31593 -2.31592 l 0.61236,-0.57529 0.61237,-0.57529 h 0.92902 0.92901 l 0.57529,0.61237 0.57528,0.61236 v 2.27885 2.27885 l -0.69714,0.54837 -0.69714,0.54837 z m 0.0663,-1.38911 0.33059,-0.11019 v -1.96238 -1.96232 h -0.39689 -0.39687 l -0.0798,1.69192 -0.0798,1.69192 0.14605,0.3806 0.14605,0.3806 z m -25.0032699,1.07596 -0.7276,0.0837 v -3.32487 -3.32487 h 0.93259 0.93259 l 0.27728,0.72761 0.27729,0.7276 0.13594,0.79375 0.13593,0.79375 0.14068,0.39688 0.14068,0.39687 0.4340799,-1.85208 0.43409,-1.85209 0.98984,-0.0821 0.98984,-0.0821 v 3.32327 3.32326 h -0.77925 -0.77926 l -0.0841,-1.25677 -0.0841,-1.25677 -0.26806,1.19062 -0.26807,1.19063 -0.6948399,0.0812 -0.69484,0.0812 -0.18789,-1.13956 -0.18789,-1.13957 -0.18002,-0.33227 -0.18003,-0.33227 0.0114,1.39061 0.0114,1.3906 z m 6.6725899,0.0486 h -0.8019 l 0.0743,-3.24115 0.0743,-3.24115 0.72761,-0.0837 0.7276,-0.0837 v 3.32487 3.32487 z m 3.44772,0 h -0.79375 v -2.51355 -2.51354 h -0.66145 -0.66146 v -0.79375 -0.79375 h 2.11666 2.11667 v 0.79375 0.79375 h -0.66146 -0.66146 v 2.51354 2.51355 z m 3.43144,0 h -0.8019 l 0.0743,-3.24115 0.0743,-3.24115 h 0.66146 0.66146 l 0.0806,1.25677 0.0806,1.25678 h 0.63246 0.63247 l 0.0806,-1.25678 0.0806,-1.25677 0.7276,-0.0837 0.72761,-0.0837 v 3.32487 3.32487 h -0.79375 -0.79375 v -1.19067 -1.19063 h -0.66146 -0.66146 v 1.19063 1.19062 z m 15.02325,-0.0486 -0.7276,0.0837 v -3.32487 -3.32487 h 0.65765 0.65765 l 0.80136,1.5875 0.80137,1.5875 0.0623,4.8e-4 0.0623,4.8e-4 v -1.52184 -1.52184 l 0.72761,-0.0837 0.7276,-0.0837 v 3.32487 3.32488 h -0.66433 -0.66434 l -0.72473,-1.48501 -0.72473,-1.485 -0.13229,1.41886 -0.13229,1.41885 z m 5.35781,0.0486 h -0.81003 l 0.0743,-3.24115 0.0743,-3.24115 h 0.66145 0.66146 l 0.0743,3.24115 0.0743,3.24115 z m 1.97934,0 h -0.65643 l 0.008,-0.46303 0.008,-0.46302 0.71971,-2.77812 0.71972,-2.77813 h 0.7715 0.7715 l 0.32241,1.05834 0.32241,1.05833 0.42724,1.88994 0.42724,1.88994 v 0.29287 0.29288 h -0.77536 -0.77535 l -0.0846,-0.59532 -0.0845,-0.59531 -0.56307,-0.0803 -0.56307,-0.0803 -0.16958,0.67564 -0.16957,0.67563 z m 1.46025,-2.38125 h 0.26458 l -0.0186,-0.8599 -0.0186,-0.8599 -0.22739,0.52917 -0.22739,0.52917 -0.0186,0.33073 -0.0186,0.33073 z m 3.63802,2.33267 -0.72761,0.0837 v -3.34327 -3.34326 l 0.5803,0.0845 0.58029,0.0846 0.85953,1.43389 0.85954,1.4339 0.0815,-1.4339 0.0815,-1.43389 h 0.66146 0.66145 v 3.175 3.175 h -0.66042 -0.66041 l -0.67197,-1.24423 -0.67196,-1.24418 -0.12283,-0.12381 -0.12284,-0.1238 v 1.36798 1.36799 z"
       id="path1212" /></g></svg>
