<?xml version="1.0" encoding="UTF-8" standalone="no"?>
<!-- Created with Inkscape (http://www.inkscape.org/) -->

<svg
   width="107.33659mm"
   height="45.748775mm"
   viewBox="0 0 107.33659 45.748775"
   version="1.1"
   id="svg5"
   xml:space="preserve"
   xmlns:inkscape="http://www.inkscape.org/namespaces/inkscape"
   xmlns:sodipodi="http://sodipodi.sourceforge.net/DTD/sodipodi-0.dtd"
   xmlns="http://www.w3.org/2000/svg"
   xmlns:svg="http://www.w3.org/2000/svg"><sodipodi:namedview
     id="namedview7"
     pagecolor="#ffffff"
     bordercolor="#000000"
     borderopacity="0.25"
     inkscape:showpageshadow="2"
     inkscape:pageopacity="0.0"
     inkscape:pagecheckerboard="0"
     inkscape:deskcolor="#d1d1d1"
     inkscape:document-units="mm"
     showgrid="false"
     inkscape:zoom="0.78"
     inkscape:cx="397.4359"
     inkscape:cy="495.51282"
     inkscape:window-width="1390"
     inkscape:window-height="977"
     inkscape:window-x="504"
     inkscape:window-y="25"
     inkscape:window-maximized="0"
     inkscape:current-layer="layer1" /><defs
     id="defs2" /><g
     inkscape:label="Layer 1"
     inkscape:groupmode="layer"
     id="layer1"
     transform="translate(-11.1207,-6.9760402)"><path
       style="fill:#000000;stroke-width:0.352778"
       d="m 67.439711,51.180155 -1.51597,-1.54465 0.1196,-7.36298 c 0.11927,-7.34274 0.12233,-7.36763 1.11333,-9.05355 3.03903,-5.17013 9.57744,-5.71222 13.60263,-1.12777 4.4248,5.03957 0.4149,13.22528 -6.47863,13.22528 -2.1313,0 -2.09803,0.0392 -1.57279,-1.85208 0.322,-1.15947 0.50041,-1.32292 1.44402,-1.32292 1.37067,0 3.34701,-0.93165 4.02644,-1.89807 1.10647,-1.57385 1.2977,-3.27849 0.55591,-4.95543 -1.17158,-2.64855 -3.79895,-3.66699 -6.41582,-2.48694 -2.6744,1.20598 -2.8041,1.73378 -2.8041,11.41055 0,4.68228 -0.1257,8.51322 -0.27933,8.51322 -0.15363,0 -0.96151,-0.69509 -1.79529,-1.54466 z m 29.58397,-0.96771 c -1.62058,-2.17935 -1.79068,-2.55577 -1.28323,-2.83975 0.32174,-0.18006 0.58499,-0.56397 0.58499,-0.85314 0,-0.28916 -1.19923,-4.95877 -2.66494,-10.3769 -2.09424,-7.74149 -2.5853,-9.99995 -2.29306,-10.54602 0.5291,-0.98863 0.49752,-1.03703 -0.75687,-1.15988 -0.99561,-0.0975 -1.32839,-0.44347 -2.82111,-2.93277 -0.93079,-1.55222 -1.69284,-3.16908 -1.69346,-3.59301 -0.002,-1.5054 -0.64447,-2.5806 -1.54158,-2.5806 -0.65397,0 -0.97781,-0.30793 -1.39128,-1.32292 -0.29641,-0.7276 -0.79025,-1.91397 -1.09742,-2.63637 l -0.55851,-1.31345 1.04203,-0.5388605 c 0.85013,-0.43961 1.22383,-0.46068 2.02925,-0.11442 1.33613,0.57443 1.31873,0.55154 0.84897,1.1175705 -0.323,0.3892 -0.28049,0.78272 0.19146,1.77241 0.80269,1.68327 2.14771,1.76782 3.0777,0.19347 0.49676,-0.84095 0.84396,-1.05476 1.57537,-0.97014 0.51599,0.0597 0.91233,0.26729 0.88074,0.46132 -0.0316,0.19403 -0.26319,1.35176 -0.51467,2.57274 l -0.45724,2.21996 1.573,1.42279 c 0.86516,0.78254 1.28045,1.33069 0.92287,1.21812 -2.15089,-0.67714 -2.34847,-0.65918 -2.34847,0.21354 0,0.68802 0.42399,1.05355 2.28853,1.973 l 2.28853,1.12852 2.73855,-1.20113 c 1.58179,-0.69378 3.839869,-1.3527 5.345839,-1.55995 l 2.60728,-0.35881 3.63682,2.85291 c 3.46192,2.71572 3.6419,2.92248 3.74271,4.2995 0.10426,1.42416 0.25073,1.54097 1.38038,1.10079 0.4077,-0.15886 1.06934,0.40428 2.33468,1.98707 l 1.76575,2.20876 -3.04023,3.59402 -3.04023,3.59402 -0.11312,-1.46209 -0.11311,-1.46209 -1.298,2.45486 c -1.36351,2.57877 -1.39398,2.59943 -4.65417,3.1553 -1.15851,0.19754 -1.26782,0.33235 -1.67262,2.06309 -0.47061,2.01206 -1.32532,2.93625 -3.70999,4.01158 -1.309219,0.59038 -1.372739,0.69121 -1.182999,1.87786 0.2131,1.33273 -0.0406,2.84147 -0.4778,2.84147 -0.14472,0 -1.10382,-1.13057 -2.13134,-2.51237 z m -81.39666,-5.80028 c -3.251734,-1.62041 -5.10597,-5.42736 -4.330734,-8.89148 1.192221,-5.3274 7.059068,-8.16439 11.818622,-5.71503 0.945401,0.48651 1.779176,1.06537 1.852833,1.28634 0.07366,0.22098 -0.418566,0.82318 -1.09383,1.33823 -1.175359,0.89649 -1.273263,0.91291 -2.294204,0.38497 -5.121107,-2.64823 -9.684932,4.66296 -5.09574,8.1633 1.482344,1.13064 3.992303,1.29298 5.427181,0.35102 0.883815,-0.58021 0.92878,-0.56749 2.037107,0.57601 1.085006,1.11944 1.106094,1.19397 0.494437,1.74751 -2.050164,1.85538 -5.943087,2.1906 -8.815672,0.75913 z m 10.84842,-9.42769 v -10.33201 l 1.763889,-1.73737 1.763889,-1.73737 v 12.06938 12.06938 H 28.23933 26.475441 Z m 9.93718,9.4136 c -4.096031,-2.04115 -5.693585,-6.97195 -3.585889,-11.06776 2.560176,-4.97509 9.335569,-5.84881 13.298191,-1.71488 1.909096,1.99162 2.22274,3.22643 2.22274,8.75083 v 4.95022 h -1.763889 -1.763888 l -0.0014,-4.85069 c -0.0011,-4.18861 -0.09531,-5.00486 -0.689955,-5.9801 -1.845917,-3.0274 -6.503224,-2.8743 -8.189107,0.26921 -1.725424,3.21724 0.368639,7.02276 3.938119,7.1567 1.312026,0.0492 1.453185,0.15191 1.770886,1.28821 0.56999,2.03865 0.513895,2.11667 -1.521857,2.11667 -1.308419,0 -2.425188,-0.27616 -3.714031,-0.91841 z m 18.461431,0.17555 c -2.070022,-1.0997 -2.99243,-2.04464 -3.923799,-4.01964 -1.918307,-4.06786 -0.25086,-8.67862 3.923799,-10.84994 1.914571,-0.99581 5.138812,-0.97762 7.133996,0.0402 1.99009,1.01527 2.116547,1.36919 0.917582,2.56816 -1.014942,1.01494 -1.053786,1.02315 -2.325688,0.49171 -3.56901,-1.49123 -6.960612,0.70201 -6.960612,4.5012 0,3.67069 4.175037,5.90302 7.317983,3.91283 0.730776,-0.46275 0.891646,-0.40958 2.093691,0.69202 l 1.302097,1.19327 -1.532705,1.0143 c -2.081773,1.37765 -5.808743,1.59145 -7.946344,0.45584 z m 28.833079,-7.45922 0.0947,-8.20209 h 1.5875 1.5875 l 0.0947,8.20209 0.0947,8.20208 h -1.77689 -1.77689 z m 4.05132,-28.4530405 c -0.83654,-1.41616 -0.77972,-1.89884 0.18852,-1.60122 0.97619,0.30007 0.84366,0.12709 1.13335,1.47926 0.31932,1.4905105 -0.47041,1.5633705 -1.32187,0.12196 z"
       id="path350"
       inkscape:export-filename="clacpi-logo.svg"
       inkscape:export-xdpi="96"
       inkscape:export-ydpi="96" /></g></svg>
